<?xml version="1.0" encoding="UTF-8"?>
<svg version="1.1" xmlns="http://www.w3.org/2000/svg" width="1024" height="1024">
<path d="M0 0 C6.33467076 5.8079071 8.49452589 11.47677911 9 20 C9.13226926 24.61331622 9.13672989 29.22315273 9.12939453 33.83813477 C9.13075203 35.2156275 9.13253391 36.59311988 9.13470459 37.97061157 C9.13923707 41.68744854 9.13750679 45.40425753 9.1343255 49.12109494 C9.1317807 53.02375945 9.13414528 56.92642169 9.13571167 60.8290863 C9.13752697 67.3797956 9.13514361 73.93049359 9.13037109 80.48120117 C9.12492743 88.04011044 9.12669447 95.59899273 9.1321975 103.15790135 C9.13674413 109.6651627 9.13737166 116.17241596 9.13475883 122.67967838 C9.13320488 126.55866401 9.13297809 130.43763698 9.13629532 134.31662178 C9.13919667 137.96348577 9.13715693 141.61031517 9.13140106 145.25717545 C9.12946124 147.22363997 9.1324079 149.19010743 9.13552856 151.15657043 C9.09151895 169.64155075 9.09151895 169.64155075 2 178 C-4.01931622 183.38336881 -10.67473975 183.46255365 -18.44140625 183.4140625 C-25.06212408 182.64370455 -28.92831738 179.12480268 -33.4375 174.5 C-36.69792397 169.28332164 -37.36868905 164.024026 -37.61450195 157.98486328 C-37.65202985 157.17057421 -37.68955774 156.35628513 -37.72822285 155.51732063 C-38.21942929 143.45951865 -38.16492902 131.38668292 -38.16725707 119.32104635 C-38.16797653 117.21946171 -38.17012705 115.11788327 -38.17275429 113.0163002 C-38.18193598 105.65962571 -38.18609697 98.30296909 -38.18530273 90.94628906 C-38.18469905 84.12334378 -38.19532599 77.30047679 -38.2110464 70.47755134 C-38.22414799 64.57813427 -38.22948576 58.6787428 -38.22884732 52.7793113 C-38.22859376 49.27321403 -38.23136829 45.76718714 -38.24202538 42.26110458 C-38.25356358 38.36137586 -38.24894354 34.4617547 -38.24291992 30.56201172 C-38.24853943 29.41797379 -38.25415894 28.27393585 -38.25994873 27.0952301 C-38.21752401 16.26938849 -37.24568779 8.24568779 -29.3125 0.3125 C-20.09707068 -6.86021451 -9.59092189 -5.92119762 0 0 Z " fill="#19AEE5" transform="translate(311,430)"/>
<path d="M0 0 C6.33467076 5.8079071 8.49452589 11.47677911 9 20 C9.13226926 24.61331622 9.13672989 29.22315273 9.12939453 33.83813477 C9.13075203 35.2156275 9.13253391 36.59311988 9.13470459 37.97061157 C9.13923707 41.68744854 9.13750679 45.40425753 9.1343255 49.12109494 C9.1317807 53.02375945 9.13414528 56.92642169 9.13571167 60.8290863 C9.13752697 67.3797956 9.13514361 73.93049359 9.13037109 80.48120117 C9.12492743 88.04011044 9.12669447 95.59899273 9.1321975 103.15790135 C9.13674413 109.6651627 9.13737166 116.17241596 9.13475883 122.67967838 C9.13320488 126.55866401 9.13297809 130.43763698 9.13629532 134.31662178 C9.13919667 137.96348577 9.13715693 141.61031517 9.13140106 145.25717545 C9.12946124 147.22363997 9.1324079 149.19010743 9.13552856 151.15657043 C9.09151895 169.64155075 9.09151895 169.64155075 2 178 C-4.01931622 183.38336881 -10.67473975 183.46255365 -18.44140625 183.4140625 C-25.06212408 182.64370455 -28.92831738 179.12480268 -33.4375 174.5 C-36.69792397 169.28332164 -37.36868905 164.024026 -37.61450195 157.98486328 C-37.65202985 157.17057421 -37.68955774 156.35628513 -37.72822285 155.51732063 C-38.21942929 143.45951865 -38.16492902 131.38668292 -38.16725707 119.32104635 C-38.16797653 117.21946171 -38.17012705 115.11788327 -38.17275429 113.0163002 C-38.18193598 105.65962571 -38.18609697 98.30296909 -38.18530273 90.94628906 C-38.18469905 84.12334378 -38.19532599 77.30047679 -38.2110464 70.47755134 C-38.22414799 64.57813427 -38.22948576 58.6787428 -38.22884732 52.7793113 C-38.22859376 49.27321403 -38.23136829 45.76718714 -38.24202538 42.26110458 C-38.25356358 38.36137586 -38.24894354 34.4617547 -38.24291992 30.56201172 C-38.24853943 29.41797379 -38.25415894 28.27393585 -38.25994873 27.0952301 C-38.21752401 16.26938849 -37.24568779 8.24568779 -29.3125 0.3125 C-20.09707068 -6.86021451 -9.59092189 -5.92119762 0 0 Z M5 43 C2.33184636 46.03792493 1.18223414 48.97516502 0 52.8125 C-4.02789887 65.33865519 -4.02789887 65.33865519 -9 70 C-9.433125 70.763125 -9.86625 71.52625 -10.3125 72.3125 C-15.2547714 80.18352482 -23.20167271 86.06722424 -32 89 C-32 89.66 -32 90.32 -32 91 C-32.99 91 -33.98 91 -35 91 C-35.06958022 100.80549922 -35.12285201 110.61093948 -35.15543652 120.41663551 C-35.17107726 124.97006592 -35.1922864 129.52332712 -35.22631836 134.07666016 C-35.25896866 138.47275831 -35.27686499 142.86869395 -35.28463173 147.26490402 C-35.29016507 148.9402052 -35.30097039 150.61549772 -35.31719017 152.29072952 C-35.33904018 154.64144199 -35.34196382 156.9914871 -35.34057617 159.34228516 C-35.351362 160.03136963 -35.36214783 160.7204541 -35.3732605 161.43041992 C-35.3379153 166.98181709 -33.88175097 170.97528232 -30.09765625 175.046875 C-29.42605469 175.60890625 -28.75445312 176.1709375 -28.0625 176.75 C-27.39347656 177.32234375 -26.72445313 177.8946875 -26.03515625 178.484375 C-20.84501928 182.34958257 -16.36171716 182.8828134 -10 182 C-3.48448097 179.80301602 1.23958443 176.75813634 5 171 C7.58095629 165.26504591 7.27115243 159.58578265 7.23046875 153.421875 C7.23037308 152.27848663 7.2302774 151.13509827 7.23017883 149.95706177 C7.22644849 146.22126901 7.20748007 142.48573847 7.1875 138.75 C7.18063846 136.16552825 7.17413066 133.58105554 7.16796875 130.99658203 C7.10708868 113.08398646 6.78860934 95.18559138 6.28945923 77.28048706 C5.97207341 65.85184283 5.88692743 54.43289338 6 43 C5.67 43 5.34 43 5 43 Z M4 67 C4.33 67.66 4.66 68.32 5 69 C4.34 68.67 3.68 68.34 3 68 C3.33 67.67 3.66 67.34 4 67 Z " fill="#2EDFF0" transform="translate(311,430)"/>
<path d="M0 0 C6.9776695 4.89013532 10.51194639 10.95894832 12.36328125 19.21875 C12.42515625 20.0025 12.48703125 20.78625 12.55078125 21.59375 C8.84836843 24.06202522 6.89167015 23.83134026 2.48828125 23.78125 C0.61462891 23.77158203 0.61462891 23.77158203 -1.296875 23.76171875 C-4.44921875 23.59375 -4.44921875 23.59375 -6.44921875 22.59375 C-7.40755382 20.83680237 -8.36338278 19.07742828 -9.25390625 17.28515625 C-10.76732379 15.14362098 -11.99849375 14.49547395 -14.44921875 13.59375 C-19.1458647 13.09803961 -23.87455027 13.41319039 -28.44921875 14.59375 C-28.74484242 19.91545494 -28.74484242 19.91545494 -26.44921875 24.59375 C-24.53292225 25.28357626 -24.53292225 25.28357626 -22.32421875 25.59375 C-18.45452256 26.33792235 -14.99240336 27.42713292 -11.33984375 28.88671875 C-9.23437519 29.71766906 -9.23437519 29.71766906 -6.07421875 30.40625 C0.71173499 32.62923485 7.84891729 36.26973239 11.55078125 42.59375 C14.15078316 49.48375506 14.64408361 55.49248958 11.86328125 62.28125 C9.99486228 66.11712075 7.8272588 68.80874408 4.55078125 71.59375 C3.97328125 72.13 3.39578125 72.66625 2.80078125 73.21875 C-6.6790633 79.01198833 -17.95386267 79.39483185 -28.59375 77.31640625 C-35.7789103 75.49800043 -42.67253241 72.4578121 -47.44921875 66.59375 C-49.86972545 61.79580612 -50.98783801 56.97994257 -50.44921875 51.59375 C-49.44921875 50.59375 -49.44921875 50.59375 -46.0703125 50.49609375 C-44.67574798 50.50276631 -43.28120132 50.51472468 -41.88671875 50.53125 C-41.17580078 50.53576172 -40.46488281 50.54027344 -39.73242188 50.54492188 C-37.97131862 50.55674136 -36.21025839 50.57467737 -34.44921875 50.59375 C-34.00964844 51.53605469 -33.57007813 52.47835937 -33.1171875 53.44921875 C-31.06198499 57.32378085 -29.34280684 58.61022399 -25.44921875 60.59375 C-19.97760048 62.11735102 -15.83006431 61.45635038 -10.44921875 59.59375 C-9.1179176 59.25239073 -7.78563727 58.91449044 -6.44921875 58.59375 C-6.44921875 56.28375 -6.44921875 53.97375 -6.44921875 51.59375 C-7.43921875 51.09875 -7.43921875 51.09875 -8.44921875 50.59375 C-8.44921875 49.93375 -8.44921875 49.27375 -8.44921875 48.59375 C-9.08085937 48.42359375 -9.7125 48.2534375 -10.36328125 48.078125 C-12.28134977 47.55853295 -14.19787498 47.03322803 -16.11328125 46.50390625 C-18.37346536 45.8872518 -20.6394362 45.29149388 -22.91015625 44.71484375 C-41.0704169 39.92422312 -41.0704169 39.92422312 -46.23828125 33.30078125 C-49.84122563 26.80944292 -50.66242118 21.12123171 -48.75 13.984375 C-46.46138615 7.45651439 -43.57312964 3.73848468 -37.30859375 0.48046875 C-25.02506819 -5.26437739 -12.1836811 -6.99541499 0 0 Z " fill="#2ACDEA" transform="translate(485.44921875,481.40625)"/>
<path d="M0 0 C2.27024968 -0.08097324 4.54132075 -0.13917704 6.8125 -0.1875 C8.07707031 -0.22230469 9.34164062 -0.25710938 10.64453125 -0.29296875 C14 0 14 0 15.66772461 1.06103516 C17.66368662 3.96591517 17.56971803 6.90144826 17.671875 10.31640625 C17.70448425 11.0915004 17.73709351 11.86659454 17.77069092 12.66517639 C18.19375618 24.09415206 18.22314433 35.53801176 18.24023438 46.97338867 C18.24846811 50.31566896 18.27011368 53.65730929 18.29820633 56.9994421 C18.32121807 60.21704613 18.32326602 63.43466893 18.328125 66.65234375 C18.3404718 67.84907211 18.3528186 69.04580048 18.36553955 70.27879333 C18.36253845 71.38167191 18.35953735 72.48455048 18.35644531 73.62084961 C18.36191376 75.07496498 18.36191376 75.07496498 18.36749268 76.55845642 C18 79 18 79 16.69232178 80.81349182 C13.906797 82.76645843 10.83355862 82.39090505 7.5625 82.3125 C6.24378906 82.30863281 4.92507813 82.30476562 3.56640625 82.30078125 C0.2771725 82.02337599 -1.18362593 81.46913363 -4 80 C-5.61144685 80.73857981 -7.22132537 81.48091322 -8.8203125 82.24609375 C-16.01602921 84.73493483 -23.52439983 83.37335393 -30.2578125 80.265625 C-32.33448986 78.75700736 -33.04147553 77.35184355 -34 75 C-34.66 75 -35.32 75 -36 75 C-36.98929461 73.13032395 -37.96600469 71.25398622 -38.9375 69.375 C-39.48277344 68.33085938 -40.02804687 67.28671875 -40.58984375 66.2109375 C-44.34998006 57.64907588 -44.34918957 46.79323665 -40.9765625 38.09375 C-37.34962844 30.31760338 -33.30194015 25.35389178 -25.6875 21.1875 C-19.4836007 19.18963412 -14.47320848 19.00356137 -8.5625 21.9375 C-7.36714314 22.61124659 -6.17810724 23.29652589 -5 24 C-4.34 24.33 -3.68 24.66 -3 25 C-2.37077825 18.98868506 -1.87283927 13.11546185 -2.16015625 7.0703125 C-1.95733192 4.44843701 -1.06162412 2.38969508 0 0 Z M-20 38 C-23.83452857 42.23816315 -25.1088357 46.39496144 -25 52 C-23.77451183 57.92319283 -22.1651936 63.5565376 -17 67 C-11.90192035 68.23052617 -11.90192035 68.23052617 -7 67 C-3.5191575 63.55596399 -2.16704582 62.02925125 -1.37109375 57.125 C-1.36715719 55.74982747 -1.38970784 54.37434744 -1.4375 53 C-1.42654297 52.31421875 -1.41558594 51.6284375 -1.40429688 50.921875 C-1.47701145 45.84154988 -2.82552615 42.90256418 -6 39 C-11.2194804 35.27179972 -14.0105684 35.72814663 -20 38 Z " fill="#2DD1EB" transform="translate(734,476)"/>
<path d="M0 0 C4.37235801 4.37235801 4.11407451 10.24793841 4.25292969 16.13793945 C4.28255798 17.32970291 4.31218628 18.52146637 4.3427124 19.74934387 C4.36883606 21.02444321 4.39495972 22.29954254 4.421875 23.61328125 C4.43573494 24.26953176 4.44959488 24.92578228 4.46387482 25.60191917 C4.53685782 29.0746173 4.60438686 32.54737235 4.66748047 36.02026367 C4.73331772 39.58440242 4.8179975 43.14783016 4.9070549 46.71145344 C4.97255981 49.47301323 5.02382596 52.23471187 5.07138824 54.99663353 C5.10850335 56.94258038 5.16060884 58.88822302 5.21307373 60.83381653 C5.33390939 69.36220432 5.11950478 77.09537404 -1.0625 83.5 C-5.37475996 86.75916068 -9.68648497 87.35693841 -15 87 C-20.45582095 85.92785769 -25.07290154 84.04610144 -29 80 C-30.76688321 76.35477681 -31.28601238 73.31479495 -31.4140625 69.28515625 C-31.47291626 67.57030029 -31.47291626 67.57030029 -31.53295898 65.82080078 C-31.56333252 64.58056152 -31.59370605 63.34032227 -31.625 62.0625 C-31.65859619 60.76812012 -31.69219238 59.47374023 -31.72680664 58.14013672 C-31.79599368 55.30302349 -31.85462397 52.46587574 -31.90771484 49.62841797 C-31.96826195 46.41855995 -32.04623212 43.20968097 -32.13525391 40.00048828 C-32.25206292 35.71702432 -32.33438589 31.4339983 -32.3949585 27.14938354 C-32.42313506 25.47740552 -32.46145368 23.80556515 -32.51031494 22.13406372 C-32.95843461 6.13450951 -32.95843461 6.13450951 -27.64501953 0.3684082 C-18.16723089 -7.51568282 -9.66823443 -7.22978592 0 0 Z " fill="#2FDCEF" transform="translate(265,478)"/>
<path d="M0 0 C0.94875 0.04125 1.8975 0.0825 2.875 0.125 C3.26171875 0.94484375 3.6484375 1.7646875 4.046875 2.609375 C4.82804687 4.22585938 4.82804687 4.22585938 5.625 5.875 C6.13546875 6.94234375 6.6459375 8.0096875 7.171875 9.109375 C9.4831023 13.2017316 11.37431179 15.6247706 15.875 17.125 C16.37 18.115 16.37 18.115 16.875 19.125 C18.30155995 20.0116269 19.76637542 20.83757466 21.25 21.625 C23.89830166 23.03972792 26.37104549 24.455697 28.875 26.125 C28.875 26.785 28.875 27.445 28.875 28.125 C30.36 28.62 30.36 28.62 31.875 29.125 C36.28710613 35.12976883 37.43073928 42.90886261 36.46875 50.20703125 C35.15301995 55.43419792 33.54953884 60.12623714 29.875 64.125 C27.125 64.5 27.125 64.5 24.875 64.125 C24.67413557 60.40900809 24.7230563 59.35291555 26.875 56.125 C27.36854177 50.89345724 26.72539842 47.54803203 23.875 43.125 C22.23845179 41.75486661 20.57696405 40.4129728 18.875 39.125 C18.875 38.465 18.875 37.805 18.875 37.125 C18.1015625 36.939375 18.1015625 36.939375 17.3125 36.75 C15.30000757 36.2339763 13.30343507 35.65628765 11.3125 35.0625 C7.98645946 33.9934413 7.98645946 33.9934413 4.875 34.125 C5.11621582 35.5483667 5.11621582 35.5483667 5.36230469 37.00048828 C6.02996228 41.70221729 6.05568429 46.37501919 6.078125 51.1171875 C6.08382507 52.06256378 6.08952515 53.00794006 6.09539795 53.98196411 C6.10480515 55.97380468 6.11136481 57.96566051 6.11523438 59.95751953 C6.12494761 62.98367725 6.15601505 66.00915729 6.1875 69.03515625 C6.1940307 70.97916267 6.19928091 72.92317391 6.203125 74.8671875 C6.2154718 75.76122284 6.2278186 76.65525818 6.24053955 77.5763855 C6.21670125 84.38878124 5.19580185 90.75899442 1.26171875 96.46484375 C-4.59587999 101.97233314 -9.55186661 103.62289023 -17.59765625 103.44140625 C-24.09616674 102.62783693 -28.98943396 99.08767925 -33.125 94.125 C-35.9559312 89.6345574 -36.82924288 86.40682162 -36.125 81.125 C-33.60236776 73.77900148 -29.89760407 68.96469812 -23.125 65.125 C-20.03993912 64.09664637 -17.8555728 63.99131566 -14.625 64 C-13.6659375 63.99742187 -12.706875 63.99484375 -11.71875 63.9921875 C-9.125 64.125 -9.125 64.125 -6.125 65.125 C-5.16994314 56.73632933 -5.05389717 48.4210103 -5.09765625 39.98828125 C-5.10316498 38.89530731 -5.10867371 37.80233337 -5.11434937 36.67623901 C-5.14212447 32.09210039 -5.17730818 27.50808772 -5.22094727 22.92407227 C-5.25097272 19.54963651 -5.26884534 16.17530703 -5.28515625 12.80078125 C-5.29861588 11.75819656 -5.3120755 10.71561188 -5.32594299 9.64143372 C-5.32932175 8.68250717 -5.3327005 7.72358063 -5.33618164 6.7355957 C-5.34363907 5.89100296 -5.3510965 5.04641022 -5.35877991 4.17622375 C-4.93950569 0.49744207 -3.50766709 0.14030668 0 0 Z " fill="#30D4EA" transform="translate(360.125,466.875)"/>
<path d="M0 0 C2.77553371 0.20103866 5.5416482 0.43438258 8.3125 0.6875 C9.09818359 0.74099609 9.88386719 0.79449219 10.69335938 0.84960938 C16.45127191 1.41314975 16.45127191 1.41314975 18.85546875 3.984375 C20.42915819 8.13075128 21.77223391 12.30147619 23 16.5625 C23.26055176 17.4484082 23.52110352 18.33431641 23.78955078 19.24707031 C25.69705189 25.79150502 27.46106056 32.35826135 29 39 C32.10001788 30.67612221 34.88484787 22.34992077 37.21166992 13.77563477 C38.42625414 9.44062191 39.7439315 5.2560685 43 2 C45.69654854 1.92680379 48.36691458 1.90757463 51.0625 1.9375 C51.82111328 1.94201172 52.57972656 1.94652344 53.36132812 1.95117188 C55.24091871 1.9629932 57.12046899 1.98092922 59 2 C59.4424914 8.14571391 57.95401253 12.48236067 55.625 18.125 C51.62680406 28.18197953 48.05993082 38.36186334 44.59033203 48.60986328 C34.77419692 77.4650518 34.77419692 77.4650518 24 83.75 C18.71492959 85.89449642 12.58455347 85.60141345 7 85 C5 83 5 83 4.734375 80.7578125 C4.73953125 79.88898438 4.7446875 79.02015625 4.75 78.125 C4.74226562 76.82949219 4.74226562 76.82949219 4.734375 75.5078125 C5.02408305 72.77262764 5.35729567 71.2132244 7 69 C9.3828125 68.171875 9.3828125 68.171875 12.125 67.75 C13.03507813 67.60046875 13.94515625 67.4509375 14.8828125 67.296875 C15.58148437 67.19890625 16.28015625 67.1009375 17 67 C18.00409841 62.52779851 17.9371611 59.65295834 16.5 55.3125 C15.94505859 53.62833984 15.94505859 53.62833984 15.37890625 51.91015625 C13.23801544 45.76652128 10.9702167 39.66870487 8.68359375 33.578125 C7.53662525 30.50807592 6.46867815 27.42450289 5.453125 24.30859375 C3.93615712 19.69182242 1.99549092 15.3174977 -0.01171875 10.89453125 C-1.09324731 7.72689226 -1.24923004 5.3246347 -1 2 C-0.67 1.34 -0.34 0.68 0 0 Z " fill="#2CCCEA" transform="translate(782,495)"/>
<path d="M0 0 C1.0376726 4.33106862 1.08358007 8.46677786 0.9921875 12.90234375 C0.97542969 14.20494141 0.95867188 15.50753906 0.94140625 16.84960938 C0.91050569 18.89468669 0.87495825 20.93934207 0.82861328 22.98413086 C0.43872445 33.4340756 0.43872445 33.4340756 4 43 C5.85790076 44.85790076 8.42472159 44.17949707 10.89453125 44.23046875 C13.44622986 43.9511548 14.87419425 43.45568241 17 42 C17.71393411 39.62017204 17.71393411 39.62017204 17.75 36.78515625 C17.80542969 35.70637207 17.86085938 34.62758789 17.91796875 33.51611328 C18.05861693 27.48749682 18.06363797 21.46719796 18 15.4375 C17.97454668 12.95707436 17.95349466 10.47659842 17.9375 7.99609375 C17.92589844 6.91513428 17.91429687 5.8341748 17.90234375 4.72045898 C18 2 18 2 19 -1 C21.24691477 -1.2763585 23.49784842 -1.52018861 25.75 -1.75 C27.00296875 -1.88921875 28.2559375 -2.0284375 29.546875 -2.171875 C33 -2 33 -2 35.44140625 -0.31640625 C37.28799215 2.42801841 37.39819034 3.5443499 37.1875 6.8125 C36.97206056 12.91166474 37.19000333 18.91045566 37.5 25 C37.85499781 32.74835111 38.15290404 40.49374655 38.25 48.25 C38.2819043 49.50876953 38.2819043 49.50876953 38.31445312 50.79296875 C38.34793414 56.54213715 38.34793414 56.54213715 36.6940918 58.71850586 C33.93978747 60.80199677 30.87002344 60.39177909 27.5625 60.3125 C26.24378906 60.30863281 24.92507813 60.30476562 23.56640625 60.30078125 C20.27519703 60.02320939 18.81777217 59.46958639 16 58 C14.3362776 58.69876341 12.67532508 59.40658989 11.04296875 60.17578125 C6.15645275 62.14720549 1.37490738 62.74906236 -3.6875 61.15234375 C-9.91808345 58.26884456 -13.81385066 55.02772424 -17.1105957 48.95385742 C-18.43430146 44.55761369 -18.26492321 40.30425794 -18.23046875 35.73828125 C-18.23001053 34.75127731 -18.22955231 33.76427338 -18.2290802 32.74736023 C-18.22606569 30.66709181 -18.21820343 28.58682549 -18.20581055 26.5065918 C-18.18750607 23.31355856 -18.18530131 20.12081471 -18.18554688 16.92773438 C-18.18063319 14.90624748 -18.17480552 12.88476256 -18.16796875 10.86328125 C-18.16685593 9.90496902 -18.1657431 8.9466568 -18.16459656 7.95930481 C-18.15821671 7.07466049 -18.15183685 6.19001617 -18.14526367 5.27856445 C-18.13954597 4.10871758 -18.13954597 4.10871758 -18.13371277 2.91523743 C-18 1 -18 1 -17 -1 C-14.453125 -1.484375 -14.453125 -1.484375 -11.25 -1.75 C-9.67992187 -1.89695312 -9.67992187 -1.89695312 -8.078125 -2.046875 C-4.75129889 -1.99621267 -2.81103848 -1.79987356 0 0 Z " fill="#2ACDEA" transform="translate(586,498)"/>
<path d="M0 0 C5.54158259 4.29682106 9.70560446 10.76041462 10.93359375 17.71484375 C11.64449581 29.21231749 11.54283672 39.76543829 4.05859375 49.08984375 C-1.86166388 55.10605369 -8.76212536 58.35947009 -17.21484375 58.92578125 C-25.16645169 58.53739937 -32.61466487 56.47623685 -38.87890625 51.46484375 C-46.7690898 41.54575586 -49.16888773 32.43578388 -48.06640625 19.71484375 C-46.06930538 10.18123815 -40.86569028 3.39226375 -33.06640625 -2.28515625 C-22.83796378 -8.33698471 -9.6829522 -6.02210071 0 0 Z M-27.33203125 14.2734375 C-30.76898589 20.83365647 -31.45358406 27.2198541 -29.25390625 34.34765625 C-27.66791122 37.77296495 -26.32331227 40.07161698 -22.90625 41.8203125 C-19.00354674 42.89534762 -16.79222444 43.01109607 -13.00390625 41.46484375 C-12.04484375 40.59859375 -12.04484375 40.59859375 -11.06640625 39.71484375 C-11.06640625 39.05484375 -11.06640625 38.39484375 -11.06640625 37.71484375 C-10.40640625 37.71484375 -9.74640625 37.71484375 -9.06640625 37.71484375 C-6.49866569 32.06375208 -6.28497848 26.83473844 -7.06640625 20.71484375 C-8.55994494 16.81165528 -10.19728418 12.64940479 -14.06640625 10.71484375 C-21.50300595 10.17349519 -21.50300595 10.17349519 -27.33203125 14.2734375 Z " fill="#2BCDEA" transform="translate(551.06640625,501.28515625)"/>
<path d="M0 0 C4.80603611 2.80730654 9.49060903 6.58325728 11.26335144 12.03211975 C12.50686703 17.62162915 12.9360256 22.92270913 12.9296875 28.640625 C12.93397263 29.51098892 12.93825775 30.38135284 12.94267273 31.27809143 C12.9483709 33.09904108 12.94894998 34.92001347 12.94458008 36.7409668 C12.94138666 39.53668038 12.96504892 42.33136743 12.99023438 45.12695312 C12.9925044 46.90234242 12.99321225 48.67773455 12.9921875 50.453125 C13.00139725 51.28952011 13.01060699 52.12591522 13.02009583 52.98765564 C13.0012207 55.32592773 13.0012207 55.32592773 12.62890625 59.08203125 C9.09787363 61.436053 7.32107763 61.43927572 3.12890625 61.51953125 C1.98421875 61.55949219 0.83953125 61.59945312 -0.33984375 61.640625 C-3.37109375 61.08203125 -3.37109375 61.08203125 -5.33984375 58.9296875 C-6.59575383 55.46166309 -6.00227879 53.68662362 -5.37109375 50.08203125 C-5.24507833 45.39057465 -5.41733608 40.70976479 -5.55859375 36.01953125 C-5.58663086 34.11977539 -5.58663086 34.11977539 -5.61523438 32.18164062 C-5.65197266 30.96154297 -5.68871094 29.74144531 -5.7265625 28.484375 C-5.76753052 26.82136353 -5.76753052 26.82136353 -5.80932617 25.12475586 C-6.49366043 21.41816833 -7.71861844 19.72438147 -10.37109375 17.08203125 C-13.77638371 15.83364744 -13.77638371 15.83364744 -17.37109375 16.08203125 C-20.17298821 17.84844297 -21.88634286 19.11252947 -23.37109375 22.08203125 C-23.50370209 24.74371009 -23.580976 27.38359188 -23.6171875 30.046875 C-23.65012113 31.66732321 -23.68333286 33.28776578 -23.71679688 34.90820312 C-23.76425034 37.46700219 -23.80868946 40.02577762 -23.84790039 42.5847168 C-23.88758391 45.05151062 -23.93913202 47.51783767 -23.9921875 49.984375 C-24.00060165 50.75007309 -24.00901581 51.51577118 -24.01768494 52.30467224 C-24.10563273 56.0782844 -24.2276602 57.86688093 -26.37109375 61.08203125 C-29.55859375 61.4453125 -29.55859375 61.4453125 -33.37109375 61.39453125 C-35.25828125 61.38873047 -35.25828125 61.38873047 -37.18359375 61.3828125 C-40.37109375 61.08203125 -40.37109375 61.08203125 -42.37109375 59.08203125 C-42.62506104 56.73573303 -42.62506104 56.73573303 -42.62988281 53.76196289 C-42.63933929 52.09497093 -42.63933929 52.09497093 -42.64898682 50.39430237 C-42.64493835 49.18910446 -42.64088989 47.98390656 -42.63671875 46.7421875 C-42.6386322 45.5091539 -42.64054565 44.2761203 -42.64251709 43.00572205 C-42.64422996 39.72377537 -42.6361613 36.44201687 -42.625 33.16009521 C-42.62110065 31.14809122 -42.6249818 29.13626194 -42.63183594 27.12426758 C-42.64416874 23.26765803 -42.64269891 19.41130772 -42.63671875 15.5546875 C-42.64076721 14.35151382 -42.64481567 13.14834015 -42.64898682 11.90870667 C-42.6426825 10.79422653 -42.63637817 9.6797464 -42.62988281 8.53149414 C-42.62829163 7.5493544 -42.62670044 6.56721466 -42.62506104 5.55531311 C-42.37109375 3.08203125 -42.37109375 3.08203125 -40.37109375 0.08203125 C-37.79299076 -0.22268081 -35.50709957 -0.33654646 -32.93359375 -0.29296875 C-32.25232422 -0.30457031 -31.57105469 -0.31617188 -30.86914062 -0.328125 C-27.81490894 -0.31017653 -25.86108705 -0.29637942 -23.3984375 1.60546875 C-23.05941406 2.09273438 -22.72039063 2.58 -22.37109375 3.08203125 C-20.76234375 2.09203125 -20.76234375 2.09203125 -19.12109375 1.08203125 C-13.12310164 -1.88506059 -6.30144431 -2.43960364 0 0 Z " fill="#2ECEEA" transform="translate(673.37109375,496.91796875)"/>
<path d="M0 0 C2.61055594 -0.24890658 4.96094922 -0.3272977 7.5625 -0.25 C8.60954102 -0.24226563 8.60954102 -0.24226563 9.67773438 -0.234375 C14.8458282 -0.1541718 14.8458282 -0.1541718 16 1 C16.10561031 3.42317991 16.14678383 5.81800214 16.14526367 8.24194336 C16.14862228 8.9996553 16.1519809 9.75736725 16.15544128 10.53804016 C16.16497922 13.05532447 16.16689581 15.57254247 16.16796875 18.08984375 C16.17117936 19.83240283 16.17454328 21.57496164 16.17805481 23.31752014 C16.1840532 26.97527695 16.18589398 30.6330101 16.18530273 34.29077148 C16.18520107 38.98648929 16.19885437 43.68205602 16.21607494 48.377738 C16.22717295 51.97816164 16.22922262 55.57854851 16.22869301 59.1789875 C16.22987641 60.91060469 16.23431822 62.64222273 16.24202538 64.37382317 C16.25178111 66.79221159 16.2489649 69.21026879 16.24291992 71.62866211 C16.24853943 72.34925812 16.25415894 73.06985413 16.25994873 73.81228638 C16.2283157 78.7716843 16.2283157 78.7716843 14 81 C11.06640625 81.265625 11.06640625 81.265625 7.5625 81.25 C5.83193359 81.25773438 5.83193359 81.25773438 4.06640625 81.265625 C1 81 1 81 -2 79 C-2.29738278 76.53209273 -2.39933488 74.3140673 -2.37231445 71.84399414 C-2.37779045 70.73887733 -2.37779045 70.73887733 -2.38337708 69.61143494 C-2.39150176 67.16910959 -2.37785581 64.72744382 -2.36328125 62.28515625 C-2.36276282 60.59126282 -2.36327987 58.89736878 -2.36479187 57.20347595 C-2.36470206 53.64996379 -2.3542554 50.09667808 -2.33618164 46.54321289 C-2.31351137 41.98547113 -2.31294626 37.42806095 -2.31969929 32.87027836 C-2.32303937 29.37101794 -2.31640815 25.87183326 -2.30657005 22.3725872 C-2.30271715 20.69204543 -2.30157021 19.01149523 -2.3031559 17.33094978 C-2.30352633 14.98226984 -2.29091232 12.63401635 -2.2746582 10.28540039 C-2.27713562 9.58867218 -2.27961304 8.89194397 -2.28216553 8.17410278 C-2.2421268 4.5532301 -2.06971828 3.10457742 0 0 Z " fill="#55D5EA" transform="translate(761,477)"/>
<path d="M0 0 C4.13208695 2.84654878 8.01908968 6.22470183 9.46484375 11.16796875 C9.91325384 14.74013456 10.03579811 18.28025813 10.0625 21.875 C10.083125 22.56529297 10.10375 23.25558594 10.125 23.96679688 C10.16668193 29.46360163 9.03636828 33.4540821 5.33984375 37.58203125 C0.43981957 41.18180331 -4.12159955 42.25237117 -10.1875 41.9375 C-16.19924599 40.85138424 -20.33142208 38.81430442 -24.1875 33.9375 C-27.8896472 28.51649875 -28.58363649 22.37867935 -28.1875 15.9375 C-26.42837463 9.79612869 -23.9422953 4.1657998 -18.1875 0.9375 C-12.25176669 -1.7605606 -6.15654157 -2.05218052 0 0 Z " fill="#2CDEF2" transform="translate(219.1875,499.0625)"/>
<path d="M0 0 C1.98 0.33 3.96 0.66 6 1 C6.09943082 6.26524445 6.17173199 11.52993343 6.21972656 16.79589844 C6.23974959 18.58440684 6.26697654 20.37285054 6.30175781 22.16113281 C6.35068955 24.74300162 6.37306165 27.3239995 6.390625 29.90625 C6.41127014 30.69616333 6.43191528 31.48607666 6.45318604 32.29992676 C6.45581563 38.91634603 4.59647714 44.19412954 0.0625 49.09375 C-6.1227958 53.31099713 -11.60137657 54.33879853 -19 53 C-24.58232017 50.84876442 -28.39204899 47.4245381 -31 42 C-32.35956552 37.21930555 -32.50108038 33.3261406 -30.4375 28.75 C-27.52980305 23.69925998 -23.37581794 20.27974502 -18 18 C-15.703125 17.62890625 -15.703125 17.62890625 -13.25 17.5625 C-12.45078125 17.52253906 -11.6515625 17.48257813 -10.828125 17.44140625 C-8 18 -8 18 0 23 C0 15.41 0 7.82 0 0 Z " fill="#1DAFE5" transform="translate(358,515)"/>
<path d="M0 0 C10.23 0 20.46 0 31 0 C31.0825 4.99125 31.165 9.9825 31.25 15.125 C31.28641602 16.68879395 31.32283203 18.25258789 31.36035156 19.86376953 C31.37533691 21.7294458 31.37533691 21.7294458 31.390625 23.6328125 C31.41157227 24.90012207 31.43251953 26.16743164 31.45410156 27.47314453 C30.79795817 32.56919155 28.64797339 35.72004694 24.62109375 38.84765625 C19.86914173 40.93681548 15.0802071 40.61348498 10 40 C5.02728857 37.69124112 2.67468209 34.72228895 0 30 C-0.45410156 26.56494141 -0.45410156 26.56494141 -0.390625 22.8515625 C-0.38063477 21.64838379 -0.37064453 20.44520508 -0.36035156 19.20556641 C-0.32393555 17.69397949 -0.28751953 16.18239258 -0.25 14.625 C-0.1675 9.79875 -0.085 4.9725 0 0 Z " fill="#1BACE8" transform="translate(236,523)"/>
<path d="M0 0 C6.9776695 4.89013532 10.51194639 10.95894832 12.36328125 19.21875 C12.42515625 20.0025 12.48703125 20.78625 12.55078125 21.59375 C8.84836843 24.06202522 6.89167015 23.83134026 2.48828125 23.78125 C0.61462891 23.77158203 0.61462891 23.77158203 -1.296875 23.76171875 C-4.44921875 23.59375 -4.44921875 23.59375 -6.44921875 22.59375 C-7.40755382 20.83680237 -8.36338278 19.07742828 -9.25390625 17.28515625 C-10.76732379 15.14362098 -11.99849375 14.49547395 -14.44921875 13.59375 C-19.1458647 13.09803961 -23.87455027 13.41319039 -28.44921875 14.59375 C-28.74484242 19.91545494 -28.74484242 19.91545494 -26.44921875 24.59375 C-24.53292225 25.28357626 -24.53292225 25.28357626 -22.32421875 25.59375 C-18.45452256 26.33792235 -14.99240336 27.42713292 -11.33984375 28.88671875 C-9.23437519 29.71766906 -9.23437519 29.71766906 -6.07421875 30.40625 C0.71173499 32.62923485 7.84891729 36.26973239 11.55078125 42.59375 C14.15078316 49.48375506 14.64408361 55.49248958 11.86328125 62.28125 C9.99486228 66.11712075 7.8272588 68.80874408 4.55078125 71.59375 C3.97328125 72.13 3.39578125 72.66625 2.80078125 73.21875 C-6.95350582 79.17970321 -18.0981766 79.14991204 -29.015625 77.26171875 C-31.44921875 76.59375 -31.44921875 76.59375 -33.44921875 74.59375 C-32.45664062 74.75359375 -31.4640625 74.9134375 -30.44140625 75.078125 C-18.68595701 76.74481011 -7.23190117 76.67943455 2.86328125 69.90625 C7.6504755 66.0076966 10.0240522 62.03002999 10.9609375 55.91796875 C11.27212879 50.14896098 10.41461123 46.16549275 7.23046875 41.34765625 C2.23980948 36.13647947 -3.58589927 34.38854311 -10.32421875 32.53125 C-27.07307196 27.79787844 -27.07307196 27.79787844 -30.44921875 24.84375 C-31.91085134 21.55507668 -31.89337407 19.14699253 -31.44921875 15.59375 C-29.23058846 12.68657927 -27.92976946 11.75393357 -24.44921875 10.59375 C-19.12592265 10.08398381 -14.79027071 9.92322402 -9.94921875 12.34375 C-7.72838509 14.34250029 -5.94701658 16.01420929 -4.44921875 18.59375 C-4.44921875 19.58375 -4.44921875 20.57375 -4.44921875 21.59375 C0.50078125 21.59375 5.45078125 21.59375 10.55078125 21.59375 C6.79093439 10.11337447 6.79093439 10.11337447 -2.01171875 2.28125 C-10.54379413 -1.90722337 -22.370209 -1.89703638 -31.5234375 0.34765625 C-33.66804189 1.27613523 -35.52257485 2.27743774 -37.44921875 3.59375 C-38.37734375 4.191875 -39.30546875 4.79 -40.26171875 5.40625 C-44.86900551 10.01353676 -46.69199961 13.64146586 -46.88671875 20.09375 C-46.62775243 25.66152598 -45.98478832 30.09519604 -41.84375 34.17578125 C-34.74498362 39.59940353 -25.92589644 41.3328732 -17.44921875 43.59375 C-6.93998925 46.47395327 -6.93998925 46.47395327 -3.44921875 51.59375 C-3.32421875 55.15625 -3.32421875 55.15625 -4.44921875 58.59375 C-8.86182927 63.00636052 -12.61527165 63.77183722 -18.69921875 63.90625 C-24.58416316 63.86032513 -27.8522461 63.27132812 -32.44921875 59.59375 C-34.30680389 56.92851915 -34.44921875 55.88427817 -34.44921875 52.59375 C-42.36921875 53.08875 -42.36921875 53.08875 -50.44921875 53.59375 C-50.11921875 52.60375 -49.78921875 51.61375 -49.44921875 50.59375 C-44.49921875 50.59375 -39.54921875 50.59375 -34.44921875 50.59375 C-33.45921875 52.57375 -32.46921875 54.55375 -31.44921875 56.59375 C-27.10241591 60.33402221 -23.09834244 61.72487086 -17.44921875 61.59375 C-13.74749341 60.7984376 -13.74749341 60.7984376 -10.44921875 59.59375 C-9.1179176 59.25239073 -7.78563727 58.91449044 -6.44921875 58.59375 C-6.44921875 56.28375 -6.44921875 53.97375 -6.44921875 51.59375 C-7.43921875 51.09875 -7.43921875 51.09875 -8.44921875 50.59375 C-8.44921875 49.93375 -8.44921875 49.27375 -8.44921875 48.59375 C-9.08085937 48.42359375 -9.7125 48.2534375 -10.36328125 48.078125 C-12.28134977 47.55853295 -14.19787498 47.03322803 -16.11328125 46.50390625 C-18.37346536 45.8872518 -20.6394362 45.29149388 -22.91015625 44.71484375 C-41.0704169 39.92422312 -41.0704169 39.92422312 -46.23828125 33.30078125 C-49.84122563 26.80944292 -50.66242118 21.12123171 -48.75 13.984375 C-46.46138615 7.45651439 -43.57312964 3.73848468 -37.30859375 0.48046875 C-25.02506819 -5.26437739 -12.1836811 -6.99541499 0 0 Z " fill="#DFEAE9" transform="translate(485.44921875,481.40625)"/>
<path d="M0 0 C6.33467076 5.8079071 8.49452589 11.47677911 9 20 C9.13226926 24.61331622 9.13672989 29.22315273 9.12939453 33.83813477 C9.13075203 35.2156275 9.13253391 36.59311988 9.13470459 37.97061157 C9.13923707 41.68744854 9.13750679 45.40425753 9.1343255 49.12109494 C9.1317807 53.02375945 9.13414528 56.92642169 9.13571167 60.8290863 C9.13752697 67.3797956 9.13514361 73.93049359 9.13037109 80.48120117 C9.12492743 88.04011044 9.12669447 95.59899273 9.1321975 103.15790135 C9.13674413 109.6651627 9.13737166 116.17241596 9.13475883 122.67967838 C9.13320488 126.55866401 9.13297809 130.43763698 9.13629532 134.31662178 C9.13919667 137.96348577 9.13715693 141.61031517 9.13140106 145.25717545 C9.12946124 147.22363997 9.1324079 149.19010743 9.13552856 151.15657043 C9.09151895 169.64155075 9.09151895 169.64155075 2 178 C-4.01931622 183.38336881 -10.67473975 183.46255365 -18.44140625 183.4140625 C-25.06212408 182.64370455 -28.92831738 179.12480268 -33.4375 174.5 C-36.69792397 169.28332164 -37.36868905 164.024026 -37.61450195 157.98486328 C-37.65202985 157.17057421 -37.68955774 156.35628513 -37.72822285 155.51732063 C-38.21942929 143.45951865 -38.16492902 131.38668292 -38.16725707 119.32104635 C-38.16797653 117.21946171 -38.17012705 115.11788327 -38.17275429 113.0163002 C-38.18193598 105.65962571 -38.18609697 98.30296909 -38.18530273 90.94628906 C-38.18469905 84.12334378 -38.19532599 77.30047679 -38.2110464 70.47755134 C-38.22414799 64.57813427 -38.22948576 58.6787428 -38.22884732 52.7793113 C-38.22859376 49.27321403 -38.23136829 45.76718714 -38.24202538 42.26110458 C-38.25356358 38.36137586 -38.24894354 34.4617547 -38.24291992 30.56201172 C-38.24853943 29.41797379 -38.25415894 28.27393585 -38.25994873 27.0952301 C-38.21752401 16.26938849 -37.24568779 8.24568779 -29.3125 0.3125 C-20.09707068 -6.86021451 -9.59092189 -5.92119762 0 0 Z M-32.703125 7.12109375 C-35.6286092 11.35952116 -36.25177551 15.14644141 -36.26742554 20.23529053 C-36.27595551 21.49128052 -36.28448547 22.74727051 -36.29327393 24.0413208 C-36.29257496 25.42565931 -36.29165192 26.80999771 -36.29052734 28.19433594 C-36.29651451 29.65828799 -36.3033205 31.12223688 -36.31088257 32.58618164 C-36.32853321 36.55745451 -36.33323762 40.52864115 -36.33451414 44.49994946 C-36.33593713 46.98372223 -36.34020957 49.46747319 -36.34550858 51.95124054 C-36.36400758 60.62408333 -36.37217958 69.2968647 -36.37060547 77.96972656 C-36.36940494 86.04100468 -36.39049013 94.11201501 -36.4220928 102.18322539 C-36.4482912 109.12270031 -36.45897123 116.06208798 -36.45769465 123.00161195 C-36.45718595 127.14179288 -36.46281762 131.2817359 -36.48405075 135.42186737 C-36.50349277 139.31915415 -36.50351733 143.21597761 -36.48901749 147.11328125 C-36.48693546 148.53823782 -36.49159401 149.96322385 -36.5037384 151.38813019 C-36.57662109 160.53704046 -36.12828006 168.17023485 -30 175.33984375 C-29.01 176.13068359 -29.01 176.13068359 -28 176.9375 C-27.34 177.48277344 -26.68 178.02804687 -26 178.58984375 C-20.74422752 182.29557395 -16.34947572 182.88111466 -10 182 C-3.48448097 179.80301602 1.23958443 176.75813634 5 171 C6.69237009 166.73750126 7.25346252 163.17234597 7.26742554 158.59976196 C7.27595551 157.33253799 7.28448547 156.06531403 7.29327393 154.75968933 C7.292575 153.36795031 7.291652 151.97621139 7.29052734 150.58447266 C7.29651613 149.10889853 7.30332249 147.63332753 7.31088257 146.15776062 C7.32851316 142.15975555 7.33323667 138.16183614 7.33451414 134.16379595 C7.33593785 131.66344219 7.3402116 129.16311006 7.34550858 126.66276169 C7.36399843 117.93271252 7.37218041 109.20272435 7.37060547 100.47265625 C7.36940403 92.34623867 7.3905094 84.22008667 7.4220928 76.09373629 C7.4482766 69.10669893 7.4589719 62.11974821 7.45769465 55.13266218 C7.45718568 50.96402412 7.46283305 46.79562224 7.48405075 42.62703323 C7.50346904 38.70511385 7.50353344 34.78365512 7.48901749 30.86171913 C7.48693278 29.42666638 7.49161012 27.99158451 7.5037384 26.5565815 C7.57428759 17.62733794 7.33861153 10.92851046 1.21875 3.9765625 C0.6515625 3.53054688 0.084375 3.08453125 -0.5 2.625 C-1.0671875 2.16351563 -1.634375 1.70203125 -2.21875 1.2265625 C-13.28144606 -6.39117119 -24.66902367 -2.18723333 -32.703125 7.12109375 Z " fill="#E1EAE9" transform="translate(311,430)"/>
<path d="M0 0 C1.0376726 4.33106862 1.08358007 8.46677786 0.9921875 12.90234375 C0.97542969 14.20494141 0.95867188 15.50753906 0.94140625 16.84960938 C0.91050569 18.89468669 0.87495825 20.93934207 0.82861328 22.98413086 C0.43872445 33.4340756 0.43872445 33.4340756 4 43 C5.85790076 44.85790076 8.42472159 44.17949707 10.89453125 44.23046875 C13.44622986 43.9511548 14.87419425 43.45568241 17 42 C17.71393411 39.62017204 17.71393411 39.62017204 17.75 36.78515625 C17.80542969 35.70637207 17.86085938 34.62758789 17.91796875 33.51611328 C18.05861693 27.48749682 18.06363797 21.46719796 18 15.4375 C17.97454668 12.95707436 17.95349466 10.47659842 17.9375 7.99609375 C17.92589844 6.91513428 17.91429687 5.8341748 17.90234375 4.72045898 C18 2 18 2 19 -1 C21.24691477 -1.2763585 23.49784842 -1.52018861 25.75 -1.75 C27.00296875 -1.88921875 28.2559375 -2.0284375 29.546875 -2.171875 C33 -2 33 -2 35.44140625 -0.31640625 C37.28799215 2.42801841 37.39819034 3.5443499 37.1875 6.8125 C36.97206056 12.91166474 37.19000333 18.91045566 37.5 25 C37.85499781 32.74835111 38.15290404 40.49374655 38.25 48.25 C38.2819043 49.50876953 38.2819043 49.50876953 38.31445312 50.79296875 C38.34793414 56.54213715 38.34793414 56.54213715 36.6940918 58.71850586 C33.93978747 60.80199677 30.87002344 60.39177909 27.5625 60.3125 C26.24378906 60.30863281 24.92507813 60.30476562 23.56640625 60.30078125 C20.27519703 60.02320939 18.81777217 59.46958639 16 58 C14.3362776 58.69876341 12.67532508 59.40658989 11.04296875 60.17578125 C6.15645275 62.14720549 1.37490738 62.74906236 -3.6875 61.15234375 C-9.91808345 58.26884456 -13.81385066 55.02772424 -17.1105957 48.95385742 C-18.43430146 44.55761369 -18.26492321 40.30425794 -18.23046875 35.73828125 C-18.23001053 34.75127731 -18.22955231 33.76427338 -18.2290802 32.74736023 C-18.22606569 30.66709181 -18.21820343 28.58682549 -18.20581055 26.5065918 C-18.18750607 23.31355856 -18.18530131 20.12081471 -18.18554688 16.92773438 C-18.18063319 14.90624748 -18.17480552 12.88476256 -18.16796875 10.86328125 C-18.16685593 9.90496902 -18.1657431 8.9466568 -18.16459656 7.95930481 C-18.15821671 7.07466049 -18.15183685 6.19001617 -18.14526367 5.27856445 C-18.13954597 4.10871758 -18.13954597 4.10871758 -18.13371277 2.91523743 C-18 1 -18 1 -17 -1 C-14.453125 -1.484375 -14.453125 -1.484375 -11.25 -1.75 C-9.67992187 -1.89695312 -9.67992187 -1.89695312 -8.078125 -2.046875 C-4.75129889 -1.99621267 -2.81103848 -1.79987356 0 0 Z M-16 1 C-16.12422668 7.24382388 -16.21463541 13.48691769 -16.2746582 19.73168945 C-16.29969737 21.8529108 -16.33373907 23.97404677 -16.37719727 26.0949707 C-16.43831672 29.15597678 -16.4663163 32.21583568 -16.48828125 35.27734375 C-16.51408768 36.21521225 -16.5398941 37.15308075 -16.56648254 38.11936951 C-16.56983167 46.10300937 -14.0649135 51.77791145 -8.5625 57.5625 C-2.22245745 60.12076278 5.01453297 60.18177237 11.58203125 58.234375 C15.28646754 56.50243076 17.9262316 54.62909471 20 51 C20.495 54.465 20.495 54.465 21 58 C25.29 58 29.58 58 34 58 C34 39.19 34 20.38 34 1 C29.38 1 24.76 1 20 1 C19.9906543 2.1552417 19.98130859 3.3104834 19.97167969 4.50073242 C19.9317339 8.79685682 19.86596254 13.09226856 19.79248047 17.38793945 C19.76429741 19.24526803 19.7430696 21.10271595 19.72900391 22.96020508 C19.70753716 25.63424661 19.66086931 28.30685735 19.609375 30.98046875 C19.60753204 32.2213752 19.60753204 32.2213752 19.60565186 33.48735046 C19.50527129 37.46025211 19.28015609 39.54565187 17.14941406 43.0012207 C13.7463501 46.16579188 10.49639771 46.33487038 5.9375 46.29296875 C4 46 4 46 1.5625 44.125 C-1.48129821 39.98543443 -1.21764789 36.25348909 -1.31640625 31.2734375 C-1.33718735 30.41062164 -1.35796844 29.54780579 -1.37937927 28.65884399 C-1.44486034 25.89764507 -1.50375298 23.13634962 -1.5625 20.375 C-1.6056866 18.50519828 -1.64930093 16.63540638 -1.69335938 14.765625 C-1.80054024 10.17718272 -1.90181175 5.58864317 -2 1 C-6.62 1 -11.24 1 -16 1 Z " fill="#DBE9E9" transform="translate(586,498)"/>
<path d="M0 0 C2.27024968 -0.08097324 4.54132075 -0.13917704 6.8125 -0.1875 C8.07707031 -0.22230469 9.34164062 -0.25710938 10.64453125 -0.29296875 C14 0 14 0 15.66772461 1.06103516 C17.66368662 3.96591517 17.56971803 6.90144826 17.671875 10.31640625 C17.70448425 11.0915004 17.73709351 11.86659454 17.77069092 12.66517639 C18.19375618 24.09415206 18.22314433 35.53801176 18.24023438 46.97338867 C18.24846811 50.31566896 18.27011368 53.65730929 18.29820633 56.9994421 C18.32121807 60.21704613 18.32326602 63.43466893 18.328125 66.65234375 C18.3404718 67.84907211 18.3528186 69.04580048 18.36553955 70.27879333 C18.36253845 71.38167191 18.35953735 72.48455048 18.35644531 73.62084961 C18.36191376 75.07496498 18.36191376 75.07496498 18.36749268 76.55845642 C18 79 18 79 16.69232178 80.81349182 C13.906797 82.76645843 10.83355862 82.39090505 7.5625 82.3125 C6.24378906 82.30863281 4.92507813 82.30476562 3.56640625 82.30078125 C0.2771725 82.02337599 -1.18362593 81.46913363 -4 80 C-5.61144685 80.73857981 -7.22132537 81.48091322 -8.8203125 82.24609375 C-16.01602921 84.73493483 -23.52439983 83.37335393 -30.2578125 80.265625 C-32.33448986 78.75700736 -33.04147553 77.35184355 -34 75 C-34.66 75 -35.32 75 -36 75 C-36.98929461 73.13032395 -37.96600469 71.25398622 -38.9375 69.375 C-39.48277344 68.33085938 -40.02804687 67.28671875 -40.58984375 66.2109375 C-44.34998006 57.64907588 -44.34918957 46.79323665 -40.9765625 38.09375 C-37.34962844 30.31760338 -33.30194015 25.35389178 -25.6875 21.1875 C-19.4836007 19.18963412 -14.47320848 19.00356137 -8.5625 21.9375 C-7.36714314 22.61124659 -6.17810724 23.29652589 -5 24 C-4.34 24.33 -3.68 24.66 -3 25 C-2.37077825 18.98868506 -1.87283927 13.11546185 -2.16015625 7.0703125 C-1.95733192 4.44843701 -1.06162412 2.38969508 0 0 Z M0 3 C-0.33 12.24 -0.66 21.48 -1 31 C-2.32 29.35 -3.64 27.7 -5 26 C-11.3645548 21.98028118 -17.69656374 22.13929756 -25 23 C-31.08493153 24.98672055 -34.37507719 29.30249289 -37.7734375 34.5234375 C-42.36333245 43.79093239 -42.61290702 55.16596853 -39.4375 64.9375 C-36.48847875 71.8666688 -32.38116237 77.12593776 -25.5625 80.5 C-20.49421652 82.42422966 -16.12731671 83.12057418 -10.86328125 81.234375 C-6.95771263 79.41514526 -3.72811374 77.41014218 -1 74 C-1 73.34 -1 72.68 -1 72 C-0.34 72 0.32 72 1 72 C1 74.64 1 77.28 1 80 C5.29 80 9.58 80 14 80 C14 54.59 14 29.18 14 3 C9.38 3 4.76 3 0 3 Z " fill="#E5EBEA" transform="translate(734,476)"/>
<path d="M0 0 C2.77553371 0.20103866 5.5416482 0.43438258 8.3125 0.6875 C9.09818359 0.74099609 9.88386719 0.79449219 10.69335938 0.84960938 C16.45127191 1.41314975 16.45127191 1.41314975 18.85546875 3.984375 C20.42915819 8.13075128 21.77223391 12.30147619 23 16.5625 C23.26055176 17.4484082 23.52110352 18.33431641 23.78955078 19.24707031 C25.69705189 25.79150502 27.46106056 32.35826135 29 39 C32.10001788 30.67612221 34.88484787 22.34992077 37.21166992 13.77563477 C38.42625414 9.44062191 39.7439315 5.2560685 43 2 C45.69654854 1.92680379 48.36691458 1.90757463 51.0625 1.9375 C51.82111328 1.94201172 52.57972656 1.94652344 53.36132812 1.95117188 C55.24091871 1.9629932 57.12046899 1.98092922 59 2 C59.4424914 8.14571391 57.95401253 12.48236067 55.625 18.125 C51.62680406 28.18197953 48.05993082 38.36186334 44.59033203 48.60986328 C34.77419692 77.4650518 34.77419692 77.4650518 24 83.75 C18.71492959 85.89449642 12.58455347 85.60141345 7 85 C5 83 5 83 4.734375 80.7578125 C4.73953125 79.88898438 4.7446875 79.02015625 4.75 78.125 C4.74226562 76.82949219 4.74226562 76.82949219 4.734375 75.5078125 C5.02408305 72.77262764 5.35729567 71.2132244 7 69 C9.3828125 68.171875 9.3828125 68.171875 12.125 67.75 C13.03507813 67.60046875 13.94515625 67.4509375 14.8828125 67.296875 C15.58148437 67.19890625 16.28015625 67.1009375 17 67 C18.00409841 62.52779851 17.9371611 59.65295834 16.5 55.3125 C15.94505859 53.62833984 15.94505859 53.62833984 15.37890625 51.91015625 C13.23801544 45.76652128 10.9702167 39.66870487 8.68359375 33.578125 C7.53662525 30.50807592 6.46867815 27.42450289 5.453125 24.30859375 C3.93615712 19.69182242 1.99549092 15.3174977 -0.01171875 10.89453125 C-1.09324731 7.72689226 -1.24923004 5.3246347 -1 2 C-0.67 1.34 -0.34 0.68 0 0 Z M43 4 C39.41411813 12.02554514 36.90209119 20.10987457 34.828125 28.6484375 C33.86937639 32.52865594 32.84735819 36.38951708 31.8125 40.25 C31.63340088 40.91854004 31.45430176 41.58708008 31.26977539 42.27587891 C30.84728308 43.85079167 30.42375795 45.42542731 30 47 C26.71280794 36.56278649 23.49832723 26.1046681 20.32397461 15.63256836 C20.03659424 14.68518799 19.74921387 13.73780762 19.453125 12.76171875 C19.19692383 11.91569092 18.94072266 11.06966309 18.67675781 10.19799805 C18.1410242 8.4580234 17.57571888 6.72715664 17 5 C12.05 5 7.1 5 2 5 C3.57410686 14.44464116 7.05080494 23.17768469 10.375 32.125 C12.79691738 38.66437377 15.17657994 45.21553143 17.4375 51.8125 C17.69644043 52.54678223 17.95538086 53.28106445 18.22216797 54.03759766 C19.60384061 58.12951079 20.47412671 61.62244658 20 66 C17.20820537 69.22801254 14.80390854 70.21625609 10.6875 70.75 C9.470625 70.8325 8.25375 70.915 7 71 C7 74.96 7 78.92 7 83 C16.64400377 83.44340247 23.16931093 82.86455126 30.8125 76.75 C36.15730283 70.0308193 38.47698974 61.99897325 41.0625 53.9375 C43.62246326 46.08004051 46.23537342 38.25329879 49.03125 30.4765625 C49.28402206 29.77251785 49.53679413 29.06847321 49.79722595 28.34309387 C51.03769919 24.8939859 52.28695277 21.44828835 53.54516602 18.00561523 C54.00034932 16.74469624 54.45535501 15.4837131 54.91015625 14.22265625 C55.31371338 13.11672119 55.71727051 12.01078613 56.13305664 10.87133789 C57.19269506 7.86168283 57.19269506 7.86168283 57 4 C52.38 4 47.76 4 43 4 Z " fill="#DBE9E9" transform="translate(782,495)"/>
<path d="M0 0 C0.94875 0.04125 1.8975 0.0825 2.875 0.125 C3.26171875 0.94484375 3.6484375 1.7646875 4.046875 2.609375 C4.82804687 4.22585938 4.82804687 4.22585938 5.625 5.875 C6.13546875 6.94234375 6.6459375 8.0096875 7.171875 9.109375 C9.4831023 13.2017316 11.37431179 15.6247706 15.875 17.125 C16.37 18.115 16.37 18.115 16.875 19.125 C18.30155995 20.0116269 19.76637542 20.83757466 21.25 21.625 C23.89830166 23.03972792 26.37104549 24.455697 28.875 26.125 C28.875 26.785 28.875 27.445 28.875 28.125 C30.36 28.62 30.36 28.62 31.875 29.125 C36.28710613 35.12976883 37.43073928 42.90886261 36.46875 50.20703125 C35.15301995 55.43419792 33.54953884 60.12623714 29.875 64.125 C27.125 64.5 27.125 64.5 24.875 64.125 C24.67413557 60.40900809 24.7230563 59.35291555 26.875 56.125 C27.36854177 50.89345724 26.72539842 47.54803203 23.875 43.125 C22.23845179 41.75486661 20.57696405 40.4129728 18.875 39.125 C18.875 38.465 18.875 37.805 18.875 37.125 C18.1015625 36.939375 18.1015625 36.939375 17.3125 36.75 C15.30000757 36.2339763 13.30343507 35.65628765 11.3125 35.0625 C7.98645946 33.9934413 7.98645946 33.9934413 4.875 34.125 C5.11621582 35.5483667 5.11621582 35.5483667 5.36230469 37.00048828 C6.02996228 41.70221729 6.05568429 46.37501919 6.078125 51.1171875 C6.08382507 52.06256378 6.08952515 53.00794006 6.09539795 53.98196411 C6.10480515 55.97380468 6.11136481 57.96566051 6.11523438 59.95751953 C6.12494761 62.98367725 6.15601505 66.00915729 6.1875 69.03515625 C6.1940307 70.97916267 6.19928091 72.92317391 6.203125 74.8671875 C6.2154718 75.76122284 6.2278186 76.65525818 6.24053955 77.5763855 C6.21670125 84.38878124 5.19580185 90.75899442 1.26171875 96.46484375 C-4.59587999 101.97233314 -9.55186661 103.62289023 -17.59765625 103.44140625 C-24.09616674 102.62783693 -28.98943396 99.08767925 -33.125 94.125 C-35.9559312 89.6345574 -36.82924288 86.40682162 -36.125 81.125 C-33.60236776 73.77900148 -29.89760407 68.96469812 -23.125 65.125 C-20.03993912 64.09664637 -17.8555728 63.99131566 -14.625 64 C-13.6659375 63.99742187 -12.706875 63.99484375 -11.71875 63.9921875 C-9.125 64.125 -9.125 64.125 -6.125 65.125 C-5.16994314 56.73632933 -5.05389717 48.4210103 -5.09765625 39.98828125 C-5.10316498 38.89530731 -5.10867371 37.80233337 -5.11434937 36.67623901 C-5.14212447 32.09210039 -5.17730818 27.50808772 -5.22094727 22.92407227 C-5.25097272 19.54963651 -5.26884534 16.17530703 -5.28515625 12.80078125 C-5.29861588 11.75819656 -5.3120755 10.71561188 -5.32594299 9.64143372 C-5.32932175 8.68250717 -5.3327005 7.72358063 -5.33618164 6.7355957 C-5.34363907 5.89100296 -5.3510965 5.04641022 -5.35877991 4.17622375 C-4.93950569 0.49744207 -3.50766709 0.14030668 0 0 Z M-3.125 2.125 C-3.125 24.565 -3.125 47.005 -3.125 70.125 C-5.435 68.805 -7.745 67.485 -10.125 66.125 C-15.35574255 64.98102161 -19.88482693 65.59668121 -24.5 68.3125 C-29.12794877 71.62484236 -32.72124995 75.50999981 -34.125 81.125 C-34.22508512 87.11898661 -33.18729652 91.54189623 -29.125 96.125 C-24.86977906 100.0008398 -20.93697137 101.4975608 -15.1875 101.8125 C-9.0308996 101.52451743 -4.34628174 99.68670769 -0.125 95.125 C4.30931477 88.11105824 4.40812119 82.26343873 4.265625 74.09375 C4.25713531 72.2462616 4.25713531 72.2462616 4.24847412 70.3614502 C4.22618231 66.4488956 4.17599621 62.53727526 4.125 58.625 C4.1026594 55.96355507 4.08667683 53.30211891 4.0703125 50.640625 C4.02634088 44.13510087 3.95949946 37.63011721 3.875 31.125 C5.6077013 31.55755955 7.33764816 32.00115957 9.06640625 32.44921875 C10.51188843 32.81793091 10.51188843 32.81793091 11.98657227 33.1940918 C19.10312807 35.48767875 24.33852844 39.51469951 27.875 46.125 C28.15639654 48.91082574 28.26363832 51.24856255 28.125 54 C28.10695313 54.68835938 28.08890625 55.37671875 28.0703125 56.0859375 C28.02363748 57.7662381 27.95190939 59.44581163 27.875 61.125 C33.31355754 55.87094926 34.92757245 52.28024341 35.25 44.75 C35.10804555 38.59585693 33.63101408 34.24471095 29.54296875 29.6171875 C25.16938807 25.56470515 19.94445378 22.51814365 14.85009766 19.45922852 C9.32770775 16.06054144 5.98851885 12.55528816 4.125 6.3125 C3.88265625 5.52230469 3.6403125 4.73210937 3.390625 3.91796875 C3.22046875 3.32628906 3.0503125 2.73460937 2.875 2.125 C0.895 2.125 -1.085 2.125 -3.125 2.125 Z " fill="#DFE9E9" transform="translate(360.125,466.875)"/>
<path d="M0 0 C1.32 0.33 2.64 0.66 4 1 C5.49301757 8.66504556 6.14887665 16.0160749 6.03125 23.82446289 C5.90757635 33.77025385 6.45756178 43.70110221 6.90820312 53.63427734 C7.02864167 56.73813231 6.96275591 59.7697113 6.8125 62.875 C6.81953963 66.70456013 7.50818607 68.97422595 10 72 C12.05003955 73.19232613 12.05003955 73.19232613 14 74 C14.33 74.66 14.66 75.32 15 76 C20.17803162 76.17855281 24.15067444 76.07828238 29 74 C29.99 73.01 29.99 73.01 31 72 C33.125 72.375 33.125 72.375 35 73 C30.375 77.875 30.375 77.875 27 79 C26.55269531 79.50660156 26.10539062 80.01320313 25.64453125 80.53515625 C22.74880776 83.11448239 19.42613247 82.45890964 15.72265625 82.3515625 C9.76844014 81.58272541 5.81963698 77.35014212 2 73 C-0.02540332 68.98214438 -0.2436341 65.65939041 -0.22705078 61.19018555 C-0.22748886 60.19422615 -0.22748886 60.19422615 -0.22793579 59.17814636 C-0.2265496 56.99753457 -0.21102239 54.81727038 -0.1953125 52.63671875 C-0.19157983 51.11929003 -0.18873406 49.60185888 -0.18673706 48.08442688 C-0.17912055 44.10103641 -0.15948923 40.11779302 -0.1373291 36.13446045 C-0.11682786 32.065572 -0.10772621 27.99665965 -0.09765625 23.92773438 C-0.07624134 15.9517556 -0.04212949 7.97589613 0 0 Z " fill="#138BDE" transform="translate(276,529)"/>
<path d="M0 0 C4.80603611 2.80730654 9.49060903 6.58325728 11.26335144 12.03211975 C12.50686703 17.62162915 12.9360256 22.92270913 12.9296875 28.640625 C12.93397263 29.51098892 12.93825775 30.38135284 12.94267273 31.27809143 C12.9483709 33.09904108 12.94894998 34.92001347 12.94458008 36.7409668 C12.94138666 39.53668038 12.96504892 42.33136743 12.99023438 45.12695312 C12.9925044 46.90234242 12.99321225 48.67773455 12.9921875 50.453125 C13.00139725 51.28952011 13.01060699 52.12591522 13.02009583 52.98765564 C13.0012207 55.32592773 13.0012207 55.32592773 12.62890625 59.08203125 C9.09787363 61.436053 7.32107763 61.43927572 3.12890625 61.51953125 C1.98421875 61.55949219 0.83953125 61.59945312 -0.33984375 61.640625 C-3.37109375 61.08203125 -3.37109375 61.08203125 -5.33984375 58.9296875 C-6.59575383 55.46166309 -6.00227879 53.68662362 -5.37109375 50.08203125 C-5.24507833 45.39057465 -5.41733608 40.70976479 -5.55859375 36.01953125 C-5.58663086 34.11977539 -5.58663086 34.11977539 -5.61523438 32.18164062 C-5.65197266 30.96154297 -5.68871094 29.74144531 -5.7265625 28.484375 C-5.76753052 26.82136353 -5.76753052 26.82136353 -5.80932617 25.12475586 C-6.49366043 21.41816833 -7.71861844 19.72438147 -10.37109375 17.08203125 C-13.77638371 15.83364744 -13.77638371 15.83364744 -17.37109375 16.08203125 C-20.17298821 17.84844297 -21.88634286 19.11252947 -23.37109375 22.08203125 C-23.50370209 24.74371009 -23.580976 27.38359188 -23.6171875 30.046875 C-23.65012113 31.66732321 -23.68333286 33.28776578 -23.71679688 34.90820312 C-23.76425034 37.46700219 -23.80868946 40.02577762 -23.84790039 42.5847168 C-23.88758391 45.05151062 -23.93913202 47.51783767 -23.9921875 49.984375 C-24.00060165 50.75007309 -24.00901581 51.51577118 -24.01768494 52.30467224 C-24.10563273 56.0782844 -24.2276602 57.86688093 -26.37109375 61.08203125 C-29.55859375 61.4453125 -29.55859375 61.4453125 -33.37109375 61.39453125 C-35.25828125 61.38873047 -35.25828125 61.38873047 -37.18359375 61.3828125 C-40.37109375 61.08203125 -40.37109375 61.08203125 -42.37109375 59.08203125 C-42.62506104 56.73573303 -42.62506104 56.73573303 -42.62988281 53.76196289 C-42.63933929 52.09497093 -42.63933929 52.09497093 -42.64898682 50.39430237 C-42.64493835 49.18910446 -42.64088989 47.98390656 -42.63671875 46.7421875 C-42.6386322 45.5091539 -42.64054565 44.2761203 -42.64251709 43.00572205 C-42.64422996 39.72377537 -42.6361613 36.44201687 -42.625 33.16009521 C-42.62110065 31.14809122 -42.6249818 29.13626194 -42.63183594 27.12426758 C-42.64416874 23.26765803 -42.64269891 19.41130772 -42.63671875 15.5546875 C-42.64076721 14.35151382 -42.64481567 13.14834015 -42.64898682 11.90870667 C-42.6426825 10.79422653 -42.63637817 9.6797464 -42.62988281 8.53149414 C-42.62829163 7.5493544 -42.62670044 6.56721466 -42.62506104 5.55531311 C-42.37109375 3.08203125 -42.37109375 3.08203125 -40.37109375 0.08203125 C-37.79299076 -0.22268081 -35.50709957 -0.33654646 -32.93359375 -0.29296875 C-32.25232422 -0.30457031 -31.57105469 -0.31617188 -30.86914062 -0.328125 C-27.81490894 -0.31017653 -25.86108705 -0.29637942 -23.3984375 1.60546875 C-23.05941406 2.09273438 -22.72039063 2.58 -22.37109375 3.08203125 C-20.76234375 2.09203125 -20.76234375 2.09203125 -19.12109375 1.08203125 C-13.12310164 -1.88506059 -6.30144431 -2.43960364 0 0 Z M-25.37109375 9.08203125 C-25.70109375 6.77203125 -26.03109375 4.46203125 -26.37109375 2.08203125 C-30.99109375 2.08203125 -35.61109375 2.08203125 -40.37109375 2.08203125 C-40.37109375 20.89203125 -40.37109375 39.70203125 -40.37109375 59.08203125 C-35.75109375 59.08203125 -31.13109375 59.08203125 -26.37109375 59.08203125 C-26.36174805 57.9926123 -26.35240234 56.90319336 -26.34277344 55.78076172 C-26.30276394 51.72127071 -26.23697546 47.66252884 -26.16357422 43.60351562 C-26.13542791 41.85003313 -26.1141819 40.09642526 -26.10009766 38.34277344 C-26.07857948 35.81510526 -26.03188673 33.28893441 -25.98046875 30.76171875 C-25.97924011 29.98335663 -25.97801147 29.20499451 -25.97674561 28.40304565 C-25.82503616 22.70727785 -24.49216777 19.20310527 -20.37109375 15.08203125 C-15.46510263 14.52783596 -11.58171588 14.34083403 -7.30859375 16.95703125 C-3.74429426 20.86626295 -4.15767959 24.53109803 -4.0546875 29.58984375 C-4.0339064 30.43046356 -4.01312531 31.27108337 -3.99171448 32.13717651 C-3.92623936 34.8270436 -3.86734355 37.51700968 -3.80859375 40.20703125 C-3.76540659 42.02865614 -3.72179223 43.85027096 -3.67773438 45.671875 C-3.57056007 50.14182519 -3.4692869 54.61187511 -3.37109375 59.08203125 C1.24890625 59.08203125 5.86890625 59.08203125 10.62890625 59.08203125 C10.70322192 52.92564517 10.75758709 46.7695219 10.79370117 40.61279297 C10.80876094 38.51964772 10.82921296 36.42653389 10.85522461 34.33349609 C10.89173126 31.31990797 10.90866098 28.30673813 10.921875 25.29296875 C10.94510078 23.89575089 10.94510078 23.89575089 10.96879578 22.4703064 C10.9703648 16.3736341 10.21923802 11.95472146 5.98046875 7.25390625 C0.45428723 2.70293323 -3.75609024 0.59205617 -11.02734375 0.76171875 C-16.86765927 1.5598952 -21.57192441 4.64966702 -25.37109375 9.08203125 Z " fill="#D6E8E9" transform="translate(673.37109375,496.91796875)"/>
<path d="M0 0 C1.23759823 3.71279469 1.35608897 7.31306346 1.5625 11.1875 C1.60568359 11.93708984 1.64886719 12.68667969 1.69335938 13.45898438 C1.79922685 15.30578375 1.9000976 17.15286834 2 19 C2.33 18.01 2.66 17.02 3 16 C3.66 16 4.32 16 5 16 C5.33 18.64 5.66 21.28 6 24 C7.32 24 8.64 24 10 24 C10.33 25.32 10.66 26.64 11 28 C8.55957216 29.22021392 6.96389134 29.12926518 4.23828125 29.1328125 C3.28373047 29.13410156 2.32917969 29.13539063 1.34570312 29.13671875 C0.34474609 29.13285156 -0.65621094 29.12898437 -1.6875 29.125 C-3.15993164 29.13080078 -3.15993164 29.13080078 -4.66210938 29.13671875 C-5.62310547 29.13542969 -6.58410156 29.13414062 -7.57421875 29.1328125 C-8.44651123 29.13168457 -9.31880371 29.13055664 -10.2175293 29.12939453 C-13.49646896 28.97691247 -16.75050739 28.46421323 -20 28 C-20 22.06 -20 16.12 -20 10 C-19.67 11.32 -19.34 12.64 -19 14 C-17.68 13.67 -16.36 13.34 -15 13 C-15 12.34 -15 11.68 -15 11 C-13.625 9.375 -13.625 9.375 -12 8 C-11.34 8 -10.68 8 -10 8 C-10 9.65 -10 11.3 -10 13 C-9.01 12.34 -8.02 11.68 -7 11 C-7 12.32 -7 13.64 -7 15 C-6.34 15 -5.68 15 -5 15 C-5.20625 14.071875 -5.4125 13.14375 -5.625 12.1875 C-6 9 -6 9 -4 6 C-3.34 6.33 -2.68 6.66 -2 7 C-1.855625 6.030625 -1.71125 5.06125 -1.5625 4.0625 C-1 1 -1 1 0 0 Z " fill="#23D9EF" transform="translate(256,495)"/>
<path d="M0 0 C1.24040039 0.02030273 1.24040039 0.02030273 2.50585938 0.04101562 C4.5250264 0.07603008 6.54385318 0.12982438 8.5625 0.1875 C8.73997846 6.34219954 8.7135214 9.22933555 4.5625 14.1875 C0.03129857 18.1694649 -4.10262328 18.47873201 -9.93359375 18.40234375 C-14.75725794 17.98845681 -17.52062946 16.10437054 -20.875 12.75 C-22.4375 10.1875 -22.4375 10.1875 -22.5 8.0625 C-20.96307304 5.35027595 -19.21723889 4.57736944 -16.4375 3.1875 C-15.41785156 2.66671875 -14.39820313 2.1459375 -13.34765625 1.609375 C-8.92066721 -0.27453669 -4.74228782 -0.14903241 0 0 Z " fill="#1EB7E8" transform="translate(218.4375,520.8125)"/>
<path d="M0 0 C4.37235801 4.37235801 4.11407451 10.24793841 4.25292969 16.13793945 C4.28255798 17.32970291 4.31218628 18.52146637 4.3427124 19.74934387 C4.36883606 21.02444321 4.39495972 22.29954254 4.421875 23.61328125 C4.43573494 24.26953176 4.44959488 24.92578228 4.46387482 25.60191917 C4.53685782 29.0746173 4.60438686 32.54737235 4.66748047 36.02026367 C4.73331772 39.58440242 4.8179975 43.14783016 4.9070549 46.71145344 C4.97255981 49.47301323 5.02382596 52.23471187 5.07138824 54.99663353 C5.10850335 56.94258038 5.16060884 58.88822302 5.21307373 60.83381653 C5.33390939 69.36220432 5.11950478 77.09537404 -1.0625 83.5 C-5.37475996 86.75916068 -9.68648497 87.35693841 -15 87 C-20.45582095 85.92785769 -25.07290154 84.04610144 -29 80 C-30.76688321 76.35477681 -31.28601238 73.31479495 -31.4140625 69.28515625 C-31.47291626 67.57030029 -31.47291626 67.57030029 -31.53295898 65.82080078 C-31.56333252 64.58056152 -31.59370605 63.34032227 -31.625 62.0625 C-31.65859619 60.76812012 -31.69219238 59.47374023 -31.72680664 58.14013672 C-31.79599368 55.30302349 -31.85462397 52.46587574 -31.90771484 49.62841797 C-31.96826195 46.41855995 -32.04623212 43.20968097 -32.13525391 40.00048828 C-32.25206292 35.71702432 -32.33438589 31.4339983 -32.3949585 27.14938354 C-32.42313506 25.47740552 -32.46145368 23.80556515 -32.51031494 22.13406372 C-32.95843461 6.13450951 -32.95843461 6.13450951 -27.64501953 0.3684082 C-18.16723089 -7.51568282 -9.66823443 -7.22978592 0 0 Z M-27 3 C-29.79322339 6.91197531 -30.38397771 9.62803549 -30.41992188 14.4074707 C-30.43583374 15.68262039 -30.45174561 16.95777008 -30.46813965 18.27156067 C-30.46940723 19.6563003 -30.46958356 21.04104129 -30.46875 22.42578125 C-30.47585779 23.8567891 -30.48355769 25.28779413 -30.49182129 26.71879578 C-30.50525002 29.7155245 -30.50684297 32.71198989 -30.50097656 35.70874023 C-30.49509142 39.5320561 -30.52562794 43.35409726 -30.56609344 47.17716694 C-30.59206411 50.13279417 -30.59483932 53.08811863 -30.59120178 56.04384422 C-30.59288531 57.4523456 -30.60245347 58.86086214 -30.62034607 60.26925087 C-30.71227334 68.4015866 -30.61577554 74.74818179 -25 81 C-21.24043453 84.66786875 -18.16031932 85.31460106 -13.0625 85.5625 C-8.25623937 85.38957003 -5.19032571 84.62910857 -1.40234375 81.6796875 C2.24581298 77.31002903 3.37605443 73.15770984 3.38818359 67.55493164 C3.39764008 66.29665054 3.40709656 65.03836945 3.4168396 63.74195862 C3.41146879 62.3813546 3.40531556 61.02075348 3.3984375 59.66015625 C3.4004611 58.25060374 3.40337491 56.84105225 3.40713501 55.4315033 C3.41154642 52.48361195 3.40516683 49.53599418 3.39111328 46.58813477 C3.37403749 42.8244471 3.38385932 39.0614021 3.40183067 35.29773808 C3.41271426 32.38849621 3.40920108 29.4794046 3.4014473 26.570158 C3.39945708 25.18319051 3.40186283 23.79620903 3.40888596 22.40925789 C3.64941287 11.03351841 3.64941287 11.03351841 -1.5 1.2578125 C-6.48939206 -2.51021796 -10.21511489 -3.46795952 -16.359375 -3.4140625 C-20.85273865 -2.70948181 -23.93507293 -0.26312097 -27 3 Z " fill="#E6EBEA" transform="translate(265,478)"/>
<path d="M0 0 C5.54158259 4.29682106 9.70560446 10.76041462 10.93359375 17.71484375 C11.64449581 29.21231749 11.54283672 39.76543829 4.05859375 49.08984375 C-1.86166388 55.10605369 -8.76212536 58.35947009 -17.21484375 58.92578125 C-25.16645169 58.53739937 -32.61466487 56.47623685 -38.87890625 51.46484375 C-46.7690898 41.54575586 -49.16888773 32.43578388 -48.06640625 19.71484375 C-46.06930538 10.18123815 -40.86569028 3.39226375 -33.06640625 -2.28515625 C-22.83796378 -8.33698471 -9.6829522 -6.02210071 0 0 Z M-40.00390625 5.52734375 C-46.77396937 14.16556108 -46.99383996 23.08582824 -46.06640625 33.71484375 C-44.57973688 40.66943266 -41.81066841 47.282898 -36.06640625 51.71484375 C-27.80944161 56.46592296 -19.71871152 58.46083003 -10.40234375 56.015625 C-2.61105545 53.22629671 2.86251034 49.27658946 6.87109375 41.96484375 C9.01554118 36.80543062 9.39343237 32.04133158 9.43359375 26.52734375 C9.44314087 25.40537598 9.44314087 25.40537598 9.45288086 24.26074219 C9.26114595 15.86145626 6.59985872 9.6207047 0.90234375 3.4765625 C-5.9441357 -2.64994987 -13.77499423 -3.72087836 -22.67578125 -3.62109375 C-29.86612739 -2.90868618 -35.09910548 0.33583229 -40.00390625 5.52734375 Z " fill="#DCE9E9" transform="translate(551.06640625,501.28515625)"/>
<path d="M0 0 C0.9515198 4.09238701 1.12831855 8.0489585 1.1328125 12.23828125 C1.13410156 13.38748047 1.13539063 14.53667969 1.13671875 15.72070312 C1.13285156 16.90599609 1.12898437 18.09128906 1.125 19.3125 C1.13080078 21.11944336 1.13080078 21.11944336 1.13671875 22.96289062 C1.13542969 24.10564453 1.13414062 25.24839844 1.1328125 26.42578125 C1.13168457 27.47161377 1.13055664 28.51744629 1.12939453 29.5949707 C1 32 1 32 0 33 C-0.15786308 34.85174706 -0.25107356 36.7090911 -0.31640625 38.56640625 C-0.37924805 40.2534668 -0.37924805 40.2534668 -0.44335938 41.97460938 C-0.48267578 43.15861328 -0.52199219 44.34261719 -0.5625 45.5625 C-0.62727539 47.34430664 -0.62727539 47.34430664 -0.69335938 49.16210938 C-0.79983546 52.10794784 -0.90184841 55.0538743 -1 58 C-1.33 58 -1.66 58 -2 58 C-2 39.19 -2 20.38 -2 1 C-6.62 1 -11.24 1 -16 1 C-15.97381592 2.15000488 -15.94763184 3.30000977 -15.9206543 4.48486328 C-15.82988824 8.76737881 -15.77265531 13.04980999 -15.7253418 17.33300781 C-15.70025755 19.18373938 -15.66618155 21.03437247 -15.62280273 22.88476562 C-15.56188005 25.55102883 -15.53373009 28.21597825 -15.51171875 30.8828125 C-15.48591232 31.70492218 -15.4601059 32.52703186 -15.43351746 33.37405396 C-15.4315102 37.52169715 -15.71910489 40.19617727 -18.34301758 43.50732422 C-22.00887421 46.94648586 -25.00736465 47.39612439 -29.99609375 47.359375 C-33.39129975 46.75048815 -34.94677524 44.61319515 -37 42 C-38.63945963 38.72108075 -38.12030178 35.09386466 -38.09765625 31.4921875 C-38.0962413 30.65156769 -38.09482635 29.81094788 -38.09336853 28.94485474 C-38.08776237 26.25486725 -38.07520886 23.56496241 -38.0625 20.875 C-38.05748579 19.05338662 -38.05292275 17.23177193 -38.04882812 15.41015625 C-38.03779094 10.94007223 -38.0205222 6.47005014 -38 2 C-37.67 2 -37.34 2 -37 2 C-37 13.22 -37 24.44 -37 36 C-36.34 36 -35.68 36 -35 36 C-34.525625 37.134375 -34.05125 38.26875 -33.5625 39.4375 C-32.36377917 42.75740166 -32.36377917 42.75740166 -31 44 C-24.66183049 44.44728723 -24.66183049 44.44728723 -19 42 C-18.28606589 39.62017204 -18.28606589 39.62017204 -18.25 36.78515625 C-18.19457031 35.70637207 -18.13914062 34.62758789 -18.08203125 33.51611328 C-17.94138307 27.48749682 -17.93636203 21.46719796 -18 15.4375 C-18.02545332 12.95707436 -18.04650534 10.47659842 -18.0625 7.99609375 C-18.07410156 6.91513428 -18.08570313 5.8341748 -18.09765625 4.72045898 C-18 2 -18 2 -17 -1 C-15.10590022 -1.22354607 -13.2095652 -1.42819951 -11.3125 -1.625 C-9.72888672 -1.79902344 -9.72888672 -1.79902344 -8.11328125 -1.9765625 C-4.73869377 -2.00196717 -2.84408794 -1.83456483 0 0 Z " fill="#CFE7E9" transform="translate(622,498)"/>
<path d="M0 0 C1.32 0.33 2.64 0.66 4 1 C5.49404314 8.67031077 6.14865156 16.09015199 6.03125 23.88818359 C5.9016517 34.26761865 6.50786031 44.63496219 7 55 C6.34 54.67 5.68 54.34 5 54 C4.66666667 52 4.33333333 50 4 48 C3.34 47.67 2.68 47.34 2 47 C2 47.66 2 48.32 2 49 C1.34 49 0.68 49 0 49 C0 32.83 0 16.66 0 0 Z " fill="#159EE0" transform="translate(276,529)"/>
<path d="M0 0 C5.15556463 2.98967213 5.15556463 2.98967213 6.1953125 6.18359375 C6.29199219 6.786875 6.38867188 7.39015625 6.48828125 8.01171875 C5.94558594 7.66238281 5.40289063 7.31304687 4.84375 6.953125 C3.77060547 6.27056641 3.77060547 6.27056641 2.67578125 5.57421875 C1.96808594 5.12175781 1.26039063 4.66929687 0.53125 4.203125 C-3.99778513 1.56190948 -8.41106826 1.41650508 -13.51171875 2.01171875 C-18.95028522 3.795491 -22.75070167 6.78057453 -26.51171875 11.01171875 C-26.51171875 8.04171875 -26.51171875 5.07171875 -26.51171875 2.01171875 C-31.13171875 2.01171875 -35.75171875 2.01171875 -40.51171875 2.01171875 C-40.51171875 20.82171875 -40.51171875 39.63171875 -40.51171875 59.01171875 C-35.56171875 58.68171875 -30.61171875 58.35171875 -25.51171875 58.01171875 C-25.84171875 59.00171875 -26.17171875 59.99171875 -26.51171875 61.01171875 C-28.80313161 61.06556396 -31.09490063 61.10443962 -33.38671875 61.13671875 C-34.66289063 61.15992188 -35.9390625 61.183125 -37.25390625 61.20703125 C-40.51171875 61.01171875 -40.51171875 61.01171875 -42.51171875 59.01171875 C-42.76568604 56.66542053 -42.76568604 56.66542053 -42.77050781 53.69165039 C-42.77996429 52.02465843 -42.77996429 52.02465843 -42.78961182 50.32398987 C-42.78556335 49.11879196 -42.78151489 47.91359406 -42.77734375 46.671875 C-42.7792572 45.4388414 -42.78117065 44.2058078 -42.78314209 42.93540955 C-42.78485496 39.65346287 -42.7767863 36.37170437 -42.765625 33.08978271 C-42.76172565 31.07777872 -42.7656068 29.06594944 -42.77246094 27.05395508 C-42.78479374 23.19734553 -42.78332391 19.34099522 -42.77734375 15.484375 C-42.78139221 14.28120132 -42.78544067 13.07802765 -42.78961182 11.83839417 C-42.7833075 10.72391403 -42.77700317 9.6094339 -42.77050781 8.46118164 C-42.76891663 7.4790419 -42.76732544 6.49690216 -42.76568604 5.48500061 C-42.51171875 3.01171875 -42.51171875 3.01171875 -40.51171875 0.01171875 C-37.93361576 -0.29299331 -35.64772457 -0.40685896 -33.07421875 -0.36328125 C-32.39294922 -0.37488281 -31.71167969 -0.38648438 -31.00976562 -0.3984375 C-27.95553394 -0.38048903 -26.00171205 -0.36669192 -23.5390625 1.53515625 C-23.20003906 2.02242188 -22.86101563 2.5096875 -22.51171875 3.01171875 C-20.90296875 2.02171875 -20.90296875 2.02171875 -19.26171875 1.01171875 C-13.19367032 -1.99002861 -6.35183461 -2.49924441 0 0 Z " fill="#E7EBEA" transform="translate(673.51171875,496.98828125)"/>
<path d="M0 0 C0.99 0.66 1.98 1.32 3 2 C2.34 2.86625 1.68 3.7325 1 4.625 C-1.1943739 8.32800596 -1.78704045 9.80245092 -1 14 C1.46691419 17.5633205 3.73751094 20.74632675 8 22 C12.78316975 22.27074546 17.28037144 21.7705516 22 21 C22.33 22.32 22.66 23.64 23 25 C17.45137032 28.81404892 12.55603112 28.90134799 6 28 C0.41834037 25.88997035 -3.40412847 22.39941278 -6 17 C-7.1851877 12.42385859 -7.36679479 9.06177439 -5.8125 4.5625 C-3.99671209 1.99535158 -2.93364327 1.01160113 0 0 Z " fill="#1A9EDF" transform="translate(333,540)"/>
<path d="M0 0 C4.13208695 2.84654878 8.01908968 6.22470183 9.46484375 11.16796875 C9.91325384 14.74013456 10.03579811 18.28025813 10.0625 21.875 C10.083125 22.56529297 10.10375 23.25558594 10.125 23.96679688 C10.16668193 29.46360163 9.03636828 33.4540821 5.33984375 37.58203125 C0.43981957 41.18180331 -4.12159955 42.25237117 -10.1875 41.9375 C-16.19924599 40.85138424 -20.33142208 38.81430442 -24.1875 33.9375 C-27.8896472 28.51649875 -28.58363649 22.37867935 -28.1875 15.9375 C-26.42837463 9.79612869 -23.9422953 4.1657998 -18.1875 0.9375 C-12.25176669 -1.7605606 -6.15654157 -2.05218052 0 0 Z M-22.1875 6.9375 C-26.12457528 13.41139745 -25.94533046 19.56128353 -25.1875 26.9375 C-23.64196389 32.35518571 -20.97001328 35.87178636 -16.1875 38.9375 C-10.75132947 40.74955684 -5.20534814 40.6474836 0.1875 38.75 C3.64986126 36.35932199 5.93278805 33.6969239 7.8125 29.9375 C8.10275692 26.86117699 8.09037626 23.77593757 8.125 20.6875 C8.15400391 19.84058594 8.18300781 18.99367188 8.21289062 18.12109375 C8.26931221 12.53969676 7.57615274 9.33745374 3.8125 4.9375 C-1.12652996 1.10723187 -5.2212884 0.18140794 -11.46484375 0.421875 C-15.98838447 1.27855703 -19.18422435 3.49506612 -22.1875 6.9375 Z " fill="#D9E9E9" transform="translate(219.1875,499.0625)"/>
<path d="M0 0 C2.27024968 -0.08097324 4.54132075 -0.13917704 6.8125 -0.1875 C8.07707031 -0.22230469 9.34164062 -0.25710938 10.64453125 -0.29296875 C14 0 14 0 15.93359375 1.22265625 C17.29942931 3.49904886 17.33601013 4.98448898 17.25 7.625 C17.23453125 8.42164063 17.2190625 9.21828125 17.203125 10.0390625 C17 12 17 12 16 13 C15.8761366 15.0854182 15.82200933 17.17500141 15.79467773 19.26391602 C15.77982834 20.2443689 15.77982834 20.2443689 15.76467896 21.24462891 C15.73298366 23.41435064 15.70827508 25.5840943 15.68359375 27.75390625 C15.66303113 29.25463952 15.64203485 30.7553669 15.62062073 32.25608826 C15.56532845 36.21311693 15.51595089 40.17019849 15.46777344 44.12731934 C15.4176105 48.1624016 15.36189732 52.19740672 15.30664062 56.23242188 C15.1989716 64.15488277 15.09754621 72.07740804 15 80 C14.67 80 14.34 80 14 80 C14 54.59 14 29.18 14 3 C9.38 3 4.76 3 0 3 C0 12.57 0 22.14 0 32 C-7 26 -7 26 -9 22 C-7.02 22.99 -5.04 23.98 -3 25 C-2.37077825 18.98868506 -1.87283927 13.11546185 -2.16015625 7.0703125 C-1.95733192 4.44843701 -1.06162412 2.38969508 0 0 Z " fill="#CBE7E9" transform="translate(734,476)"/>
<path d="M0 0 C4.67696981 0.05948451 7.24003928 1.16533222 10.8125 4.3125 C15.25018515 10.43344503 15.53572532 16.94782523 14.8125 24.3125 C13.48673483 28.880708 11.54871179 31.65808952 8 34.8125 C4.1828545 36.60880376 1.98700924 36.90885846 -2.1875 36.3125 C-7.16756798 33.82246601 -9.12601597 31.41600201 -11.1875 26.3125 C-11.66667083 23.50973648 -11.75785409 20.77754068 -11.75 17.9375 C-11.7512085 17.18597656 -11.75241699 16.43445313 -11.75366211 15.66015625 C-11.59104438 10.13955445 -10.47350574 6.66741861 -6.59765625 2.5625 C-6.13230469 2.15 -5.66695312 1.7375 -5.1875 1.3125 C-3.63719882 -0.23780118 -2.15073999 0.06844901 0 0 Z M-7.453125 5.87109375 C-10.89007964 12.43131272 -11.57467781 18.81751035 -9.375 25.9453125 C-7.78900497 29.3706212 -6.44440602 31.66927323 -3.02734375 33.41796875 C0.87535951 34.49300387 3.08668181 34.60875232 6.875 33.0625 C7.8340625 32.19625 7.8340625 32.19625 8.8125 31.3125 C8.8125 30.6525 8.8125 29.9925 8.8125 29.3125 C9.4725 29.3125 10.1325 29.3125 10.8125 29.3125 C13.38024056 23.66140833 13.59392777 18.43239469 12.8125 12.3125 C11.31896131 8.40931153 9.68162207 4.24706104 5.8125 2.3125 C-1.6240997 1.77115144 -1.6240997 1.77115144 -7.453125 5.87109375 Z " fill="#DDEAE9" transform="translate(531.1875,509.6875)"/>
<path d="M0 0 C3.87131054 1.98305907 6.48599982 4.93788344 8 9 C9.46802712 22.96037329 9.46802712 22.96037329 6.7265625 28.63671875 C4.1664239 31.61522146 1.80863911 33.804731 -2.20703125 34.23828125 C-6.36920888 34.35684403 -9.20780494 34.42138035 -12.9375 32.4375 C-18.06405676 26.37884201 -18.54356414 20.94648457 -18.35546875 13.171875 C-17.87871086 8.91772763 -16.80374114 5.29699189 -14 2 C-9.65424649 -0.79237779 -4.99345881 -0.77973568 0 0 Z M-12 3 C-15.83452857 7.23816315 -17.1088357 11.39496144 -17 17 C-15.77451183 22.92319283 -14.1651936 28.5565376 -9 32 C-3.90192035 33.23052617 -3.90192035 33.23052617 1 32 C4.4808425 28.55596399 5.83295418 27.02925125 6.62890625 22.125 C6.63284281 20.74982747 6.61029216 19.37434744 6.5625 18 C6.57345703 17.31421875 6.58441406 16.6284375 6.59570312 15.921875 C6.52298855 10.84154988 5.17447385 7.90256418 2 4 C-3.2194804 0.27179972 -6.0105684 0.72814663 -12 3 Z " fill="#DFEAE9" transform="translate(726,511)"/>
<path d="M0 0 C2.97 0.495 2.97 0.495 6 1 C6 10.9 6 20.8 6 31 C4 28 4 28 3 26 C1.68 26 0.36 26 -1 26 C-0.67 17.42 -0.34 8.84 0 0 Z " fill="#17A3D7" transform="translate(358,515)"/>
<path d="M0 0 C2 1.3125 2 1.3125 4 4 C4.99055866 10.58982181 4.29481477 16.23407415 1 22 C-0.30766406 23.35851767 -1.63743459 24.69655416 -3 26 C-2.93039062 25.01 -2.86078125 24.02 -2.7890625 23 C-2.21775625 14.07992849 -2.21775625 14.07992849 -5.9375 6.1875 C-6.9431048 5.11057571 -7.96100709 4.0447491 -9 3 C-9.33 2.34 -9.66 1.68 -10 1 C-8.906875 1.20625 -7.81375 1.4125 -6.6875 1.625 C-2.9161599 2.40346525 -2.9161599 2.40346525 0 0 Z " fill="#20B6DE" transform="translate(391,502)"/>
<path d="M0 0 C2 2 2 2 2.24050903 4.89797974 C2.23606781 6.13708099 2.23162659 7.37618225 2.22705078 8.65283203 C2.22734283 9.33587402 2.22763489 10.01891602 2.22793579 10.72265625 C2.22654039 12.98450341 2.21096967 15.24602276 2.1953125 17.5078125 C2.19158311 19.07436951 2.18873579 20.64092884 2.18673706 22.20748901 C2.17909476 26.33394797 2.15944124 30.46026651 2.1373291 34.58666992 C2.11688346 38.79604187 2.1077381 43.00543648 2.09765625 47.21484375 C2.07619583 55.476627 2.04205279 63.73829604 2 72 C1.67 72 1.34 72 1 72 C-0.19388403 26.39744028 -0.19388403 26.39744028 0 8 C-1.57558408 11.62149176 -3.11287383 15.24514154 -4.53515625 18.9296875 C-4.78716797 19.579375 -5.03917969 20.2290625 -5.29882812 20.8984375 C-5.81633219 22.23785979 -6.32921541 23.57907492 -6.83789062 24.921875 C-8.77782868 29.88891434 -8.77782868 29.88891434 -11 31 C-10.608125 29.845 -10.21625 28.69 -9.8125 27.5 C-8.05723852 22.25093235 -6.42187772 16.96596163 -4.80200195 11.67382812 C-1.73047633 1.73047633 -1.73047633 1.73047633 0 0 Z M-1 31 C-0.67 31.66 -0.34 32.32 0 33 C-0.66 32.67 -1.32 32.34 -2 32 C-1.67 31.67 -1.34 31.34 -1 31 Z " fill="#2AC8E8" transform="translate(316,466)"/>
<path d="M0 0 C3.54651938 10.63955815 0.64212489 24.93481218 0 36 C-0.33 36 -0.66 36 -1 36 C-1.33 24.78 -1.66 13.56 -2 2 C-8.93 1.505 -8.93 1.505 -16 1 C-16.33 15.19 -16.66 29.38 -17 44 C-17.33 44 -17.66 44 -18 44 C-18.02467081 37.91276345 -18.04284604 31.82555583 -18.05493164 25.73828125 C-18.05996852 23.66633599 -18.06679825 21.5943943 -18.07543945 19.52246094 C-18.08753321 16.54881918 -18.09323467 13.57522431 -18.09765625 10.6015625 C-18.10281754 9.67131256 -18.10797882 8.74106262 -18.11329651 7.78262329 C-18.11337204 6.92188202 -18.11344757 6.06114075 -18.11352539 5.17431641 C-18.115746 4.41486725 -18.11796661 3.65541809 -18.12025452 2.87295532 C-18 1 -18 1 -17 -1 C-14.453125 -1.484375 -14.453125 -1.484375 -11.25 -1.75 C-9.67992187 -1.89695312 -9.67992187 -1.89695312 -8.078125 -2.046875 C-4.84255796 -1.99760241 -2.83671804 -1.53377702 0 0 Z " fill="#EBECEA" transform="translate(586,498)"/>
<path d="M0 0 C0.33 0 0.66 0 1 0 C1.09796875 0.94101562 1.1959375 1.88203125 1.296875 2.8515625 C2.12073256 9.71230739 2.71091926 14.56716439 7 20 C7 21.32 7 22.64 7 24 C4.75 23.875 4.75 23.875 2 23 C-1.83567591 18.41113682 -2.50353698 15.16270115 -2.375 9.25 C-2.36210937 7.93515625 -2.34921875 6.6203125 -2.3359375 5.265625 C-2 2 -2 2 0 0 Z " fill="#169DDF" transform="translate(238,536)"/>
<path d="M0 0 C0.33 0 0.66 0 1 0 C1.00410889 1.25546631 1.00821777 2.51093262 1.01245117 3.80444336 C1.03434605 8.49576977 1.08874262 13.18626977 1.15258789 17.87719727 C1.17567788 19.90120478 1.19014233 21.92533091 1.19555664 23.94946289 C1.20491222 26.87200068 1.24604626 29.79269583 1.29296875 32.71484375 C1.28706978 34.05602516 1.28706978 34.05602516 1.28105164 35.42430115 C1.43032084 41.96111372 3.15629181 46.68552042 7 52 C10.608855 55.01418099 13.67999684 55.43296686 18.3125 55.6875 C19.91544922 55.78611328 19.91544922 55.78611328 21.55078125 55.88671875 C22.35902344 55.92410156 23.16726563 55.96148438 24 56 C24 56.33 24 56.66 24 57 C21.69 57 19.38 57 17 57 C16.67 57.66 16.34 58.32 16 59 C9.65149269 56.2140531 4.79337634 53.92715053 1 48 C-1.07263142 42.3108199 -1.20139745 37.35810558 -0.9765625 31.34765625 C-0.95153656 30.44752304 -0.92651062 29.54738983 -0.90072632 28.61997986 C-0.81906813 25.7670721 -0.72227148 22.91491378 -0.625 20.0625 C-0.56670497 18.11917046 -0.50940295 16.17581087 -0.453125 14.23242188 C-0.3135706 9.48785632 -0.16044482 4.74390319 0 0 Z " fill="#CDE7E9" transform="translate(569,501)"/>
<path d="M0 0 C0.99 0.66 1.98 1.32 3 2 C3.5625 4.8125 3.5625 4.8125 3 8 C0.38334126 11.00915755 -1.2032936 12.74562759 -5.1796875 13.30859375 C-7.375 13.3125 -7.375 13.3125 -11 13 C-11 16.96 -11 20.92 -11 25 C-6.38 25 -1.76 25 3 25 C2.67 25.66 2.34 26.32 2 27 C-0.12472576 27.05386629 -2.24983652 27.09273071 -4.375 27.125 C-5.55835938 27.14820313 -6.74171875 27.17140625 -7.9609375 27.1953125 C-11 27 -11 27 -13 25 C-13.265625 22.7578125 -13.265625 22.7578125 -13.25 20.125 C-13.25515625 19.26132812 -13.2603125 18.39765625 -13.265625 17.5078125 C-12.97591695 14.77262764 -12.64270433 13.2132244 -11 11 C-8.6171875 10.171875 -8.6171875 10.171875 -5.875 9.75 C-4.96492187 9.60046875 -4.05484375 9.4509375 -3.1171875 9.296875 C-2.06917969 9.14992188 -2.06917969 9.14992188 -1 9 C-0.45627049 5.94152152 0 3.11227195 0 0 Z " fill="#E5EBEA" transform="translate(800,553)"/>
<path d="M0 0 C0.33 0 0.66 0 1 0 C1 9.9 1 19.8 1 30 C0.01 29.67 -0.98 29.34 -2 29 C-3.06059488 21.31068715 -3.09928082 13.75493514 -3 6 C-2.34 6 -1.68 6 -1 6 C-0.67 4.02 -0.34 2.04 0 0 Z " fill="#2FB5E3" transform="translate(317,545)"/>
<path d="M0 0 C0 0.66 0 1.32 0 2 C0.66 2 1.32 2 2 2 C2.33 3.32 2.66 4.64 3 6 C-1.28629359 9.918897 -1.28629359 9.918897 -4.75 10.3125 C-7 10 -7 10 -8 9 C-8.07179964 7.48071962 -8.08392007 5.95832518 -8.0625 4.4375 C-8.05347656 3.61121094 -8.04445313 2.78492188 -8.03515625 1.93359375 C-8.02355469 1.29550781 -8.01195312 0.65742187 -8 0 C-4.71303767 -0.79953138 -3.28976808 -1.09658936 0 0 Z " fill="#15B9EE" transform="translate(798,567)"/>
<path d="M0 0 C1.98 0 3.96 0 6 0 C6 0.33 6 0.66 6 1 C4.35 1 2.7 1 1 1 C1.33 3.97 1.66 6.94 2 10 C4.41619823 10.25030977 4.41619823 10.25030977 7 10 C7.66 9.01 8.32 8.02 9 7 C10.66666667 7 12.33333333 7 14 7 C15.34275169 6.01268258 16.67732273 5.01405257 18 4 C18.99 4.33 19.98 4.66 21 5 C19.56032717 8.03930931 18.55876322 9.6991275 15.5625 11.3125 C10.33117588 12.32205378 5.324986 12.11833302 0 12 C0 8.04 0 4.08 0 0 Z " fill="#26C1ED" transform="translate(789,566)"/>
<path d="M0 0 C1.9375 1.125 1.9375 1.125 4 3 C4.75 6.1875 4.75 6.1875 5 9 C5.66 9 6.32 9 7 9 C7.64165788 14.26159459 6.20577001 16.68592849 3.09375 20.6796875 C2.7328125 21.11539063 2.371875 21.55109375 2 22 C0.9352356 18.8057068 0.93201641 16.59819169 1 13.25 C1.04423126 8.69418045 0.81392689 4.47659787 0 0 Z " fill="#1BAAD6" transform="translate(387,506)"/>
<path d="M0 0 C0.66 0 1.32 0 2 0 C2.33 0.99 2.66 1.98 3 3 C3.99 3 4.98 3 6 3 C5.71125 3.556875 5.4225 4.11375 5.125 4.6875 C2.92781533 9.20393516 1.64081312 13.33471474 0.875 18.3125 C0.70742188 19.38113281 0.53984375 20.44976562 0.3671875 21.55078125 C0.24601562 22.35902344 0.12484375 23.16726563 0 24 C-0.33 24 -0.66 24 -1 24 C-1.02887236 20.18751574 -1.04675492 16.3750593 -1.0625 12.5625 C-1.07087891 11.47388672 -1.07925781 10.38527344 -1.08789062 9.26367188 C-1.09111328 8.22919922 -1.09433594 7.19472656 -1.09765625 6.12890625 C-1.10289307 5.17056885 -1.10812988 4.21223145 -1.11352539 3.22485352 C-1 1 -1 1 0 0 Z " fill="#20D9EC" transform="translate(277,474)"/>
<path d="M0 0 C2.73588091 4.72635511 2.33049686 9.23183112 2.3125 14.5625 C2.32861328 15.52091797 2.34472656 16.47933594 2.36132812 17.46679688 C2.36197266 18.38654297 2.36261719 19.30628906 2.36328125 20.25390625 C2.36775269 21.51182983 2.36775269 21.51182983 2.37231445 22.79516602 C1.92386737 25.45085493 1.05439697 26.32653732 -1 28 C-1.99 27.67 -2.98 27.34 -4 27 C-3.01 26.67 -2.02 26.34 -1 26 C-1.00523682 25.2479126 -1.01047363 24.4958252 -1.01586914 23.72094727 C-1.03657227 20.33480658 -1.04963877 16.94867916 -1.0625 13.5625 C-1.07087891 12.37849609 -1.07925781 11.19449219 -1.08789062 9.97460938 C-1.09111328 8.84990234 -1.09433594 7.72519531 -1.09765625 6.56640625 C-1.10289307 5.52427979 -1.10812988 4.48215332 -1.11352539 3.40844727 C-1 1 -1 1 0 0 Z " fill="#EAECEA" transform="translate(622,530)"/>
<path d="M0 0 C0.99 0.33 1.98 0.66 3 1 C-0.94564168 6.65541974 -5.42279208 9.81390643 -12 12 C-15.38696744 12.3640414 -18.61245921 12.32433901 -22 12 C-22 11.67 -22 11.34 -22 11 C-16.555 10.505 -16.555 10.505 -11 10 C-10.67 9.01 -10.34 8.02 -10 7 C-8.36209288 5.95355934 -6.68991979 4.9601817 -5 4 C-3.700625 2.88625 -3.700625 2.88625 -2.375 1.75 C-1.59125 1.1725 -0.8075 0.595 0 0 Z " fill="#2EA7E6" transform="translate(313,600)"/>
<path d="M0 0 C0.33 0 0.66 0 1 0 C1.47430834 7.16732601 1.48322884 13.10101469 -3 19 C-6.47818734 22.09172208 -8.21264802 22.9492031 -12.875 23.25 C-13.90625 23.1675 -14.9375 23.085 -16 23 C-16.33 22.01 -16.66 21.02 -17 20 C-15.9275 20.04125 -14.855 20.0825 -13.75 20.125 C-10.34287835 20.01142928 -8.73773233 19.89535315 -6 18 C-5.67 17.34 -5.34 16.68 -5 16 C-4.34 16 -3.68 16 -3 16 C-0.91613111 10.72086547 -0.42089996 5.60461531 0 0 Z " fill="#CBE7E9" transform="translate(545,523)"/>
<path d="M0 0 C0.66 0.33 1.32 0.66 2 1 C1.875 2.875 1.875 2.875 1 5 C-0.98636298 5.70626239 -2.98848259 6.36893571 -5 7 C-8.05769172 9.31392887 -8.87949417 10.47780806 -9.75 14.25 C-9.8325 15.1575 -9.915 16.065 -10 17 C-10.33 17 -10.66 17 -11 17 C-11.7790224 9.05397149 -11.7790224 9.05397149 -8.875 5.125 C-5.99206683 2.99413635 -3.32999307 1.33199723 0 0 Z " fill="#1FDBEE" transform="translate(206,502)"/>
<path d="M0 0 C0.66 0.33 1.32 0.66 2 1 C0.75704035 6.98759059 -2.30504292 11.65095253 -7.0625 15.4375 C-11.61012273 17.85644826 -15.10899776 18.11838046 -20.25 18.0625 C-21.32765625 18.05347656 -22.4053125 18.04445313 -23.515625 18.03515625 C-24.33546875 18.02355469 -25.1553125 18.01195312 -26 18 C-26 17.67 -26 17.34 -26 17 C-25.16597656 16.92523437 -24.33195312 16.85046875 -23.47265625 16.7734375 C-15.84462155 15.88218946 -9.50854497 14.66287921 -4 9 C-2.26175769 6.10450397 -1.02150622 3.21453006 0 0 Z " fill="#E2E9E9" transform="translate(317,595)"/>
<path d="M0 0 C5.875 1.875 5.875 1.875 7 3 C8.68183948 3.23287008 10.3712416 3.41264166 12.0625 3.5625 C13.44115234 3.68818359 13.44115234 3.68818359 14.84765625 3.81640625 C15.91306641 3.90728516 15.91306641 3.90728516 17 4 C17 4.33 17 4.66 17 5 C12.05 5 7.1 5 2 5 C2.33 6.65 2.66 8.3 3 10 C2.01 10 1.02 10 0 10 C-1.36952673 7.26094655 -1.12621361 5.02912668 -1 2 C-0.67 1.34 -0.34 0.68 0 0 Z " fill="#CAE7EA" transform="translate(782,495)"/>
<path d="M0 0 C0.99 0.66 1.98 1.32 3 2 C2 4 2 4 -0.75 5.1875 C-5.84467684 6.46116921 -9.28220976 5.0219101 -14 3 C-14 2.34 -14 1.68 -14 1 C-13.07316406 1.01160156 -12.14632813 1.02320313 -11.19140625 1.03515625 C-9.39509766 1.04869141 -9.39509766 1.04869141 -7.5625 1.0625 C-5.77005859 1.07990234 -5.77005859 1.07990234 -3.94140625 1.09765625 C-1.11126659 1.33901792 -1.11126659 1.33901792 0 0 Z " fill="#29C5E7" transform="translate(390,499)"/>
<path d="M0 0 C2.08820926 2.50585112 3.47976943 4.98764866 4.8125 7.9375 C6.8691706 12.17692061 9.20669855 14.23405103 13 17 C14.175625 17.8971875 14.175625 17.8971875 15.375 18.8125 C15.91125 19.204375 16.4475 19.59625 17 20 C12.09764715 19.54396718 9.61335019 18.32037585 6 15 C5.49210937 14.55398438 4.98421875 14.10796875 4.4609375 13.6484375 C2.71878056 11.68268822 2.09912348 9.99721739 1.3125 7.5 C1.06113281 6.7265625 0.80976563 5.953125 0.55078125 5.15625 C0 3 0 3 0 0 Z " fill="#DBE9E9" transform="translate(435,536)"/>
<path d="M0 0 C2 2 2 2 3.25 4.3125 C6.21368046 8.86386642 10.65672853 11.82607085 15 15 C14.01 15.495 14.01 15.495 13 16 C1.22641509 8.67924528 1.22641509 8.67924528 -1 2 C-0.67 1.34 -0.34 0.68 0 0 Z " fill="#DBE7E8" transform="translate(276,597)"/>
<path d="M0 0 C0.53625 0.7425 1.0725 1.485 1.625 2.25 C5.52692703 6.76802077 8.93773735 9.07891223 14.875 9.75 C16.24890621 9.84975557 17.62383557 9.93883714 19 10 C19 10.66 19 11.32 19 12 C11.2733867 11.68906989 5.65912676 10.65912676 0 5 C-0.125 2.375 -0.125 2.375 0 0 Z " fill="#D2E6E8" transform="translate(236,553)"/>
<path d="M0 0 C3.46561662 1.15520554 4.39446973 2.71066892 6.59375 5.5 C8.70324718 7.75013033 11.18890523 8.82326265 14 10 C14 10.33 14 10.66 14 11 C10.75023196 11.37140206 9.26606756 11.16223632 6.4375 9.4375 C3.49954288 6.49954288 1.91043949 3.67936495 0 0 Z " fill="#E3EAE9" transform="translate(507,545)"/>
<path d="M0 0 C0.33 0 0.66 0 1 0 C1.38730126 3.38888605 1.17469717 4.73795424 -0.75 7.625 C-2.75810118 9.74466235 -4.4763524 11.53465623 -7 13 C-7.99 12.67 -8.98 12.34 -10 12 C-9.2575 11.443125 -8.515 10.88625 -7.75 10.3125 C-4.12772023 7.26649201 -1.50757378 4.52272135 0 0 Z " fill="#D5E7E8" transform="translate(495,542)"/>
<path d="M0 0 C0.33 0 0.66 0 1 0 C1.33611568 2.10372401 1.66879946 4.20799657 2 6.3125 C2.185625 7.48425781 2.37125 8.65601563 2.5625 9.86328125 C3 13 3 13 3 16 C2.34 16.33 1.68 16.66 1 17 C-0.18681726 13.43954823 -0.09689832 10.56191663 -0.0625 6.8125 C-0.05347656 5.54019531 -0.04445312 4.26789062 -0.03515625 2.95703125 C-0.02355469 1.98121094 -0.01195312 1.00539063 0 0 Z " fill="#31D7EA" transform="translate(194,512)"/>
<path d="M0 0 C0.66 0.99 1.32 1.98 2 3 C0.02 5.31 -1.96 7.62 -4 10 C-4.66 9.67 -5.32 9.34 -6 9 C-4.68775452 5.06326356 -3.08089673 2.77280706 0 0 Z " fill="#3CD6EB" transform="translate(703,502)"/>
<path d="M0 0 C0.99 0.33 1.98 0.66 3 1 C2.67 3.64 2.34 6.28 2 9 C1.01 9 0.02 9 -1 9 C-0.67 6.03 -0.34 3.06 0 0 Z " fill="#1495E0" transform="translate(312,591)"/>
<path d="M0 0 C2 1.0625 2 1.0625 4 3 C4.25 6.6875 4.25 6.6875 4 10 C3.34 10 2.68 10 2 10 C0.39644899 6.49223216 -0.22036864 3.85645121 0 0 Z " fill="#16A8D5" transform="translate(387,506)"/>
<path d="M0 0 C3.82669043 3.42388092 5.72278474 6.00724943 7 11 C6.34 11 5.68 11 5 11 C4.896875 10.360625 4.79375 9.72125 4.6875 9.0625 C4.460625 8.381875 4.23375 7.70125 4 7 C3.01 6.67 2.02 6.34 1 6 C0.67 4.02 0.34 2.04 0 0 Z " fill="#36D8ED" transform="translate(488,487)"/>
<path d="M0 0 C0.99 0.33 1.98 0.66 3 1 C3 1.99 3 2.98 3 4 C-1.29 4 -5.58 4 -10 4 C-10 3.67 -10 3.34 -10 3 C-7.36 3 -4.72 3 -2 3 C-1.67 2.34 -1.34 1.68 -1 1 C-0.67 0.67 -0.34 0.34 0 0 Z " fill="#21C8ED" transform="translate(772,552)"/>
<path d="M0 0 C0.66 1.32 1.32 2.64 2 4 C2.99 3.67 3.98 3.34 5 3 C5.66 5.31 6.32 7.62 7 10 C3.17398693 8.54875366 1.77670876 6.64225296 0 3 C0 2.01 0 1.02 0 0 Z " fill="#1FC3E9" transform="translate(438,540)"/>
<path d="M0 0 C2.64 0.66 5.28 1.32 8 2 C6 4 6 4 2.875 4.125 C1.451875 4.063125 1.451875 4.063125 0 4 C0 2.68 0 1.36 0 0 Z " fill="#1AAEE2" transform="translate(206,535)"/>
<path d="M0 0 C2.4375 1.25 2.4375 1.25 5 3 C5.33 4.32 5.66 5.64 6 7 C3.36 5.35 0.72 3.7 -2 2 C-1.34 1.34 -0.68 0.68 0 0 Z " fill="#D0E8E9" transform="translate(674,498)"/>
<path d="M0 0 C0.99 0.33 1.98 0.66 3 1 C1.35 2.98 -0.3 4.96 -2 7 C-2.66 6.34 -3.32 5.68 -4 5 C-2.68 3.35 -1.36 1.7 0 0 Z " fill="#43BBE5" transform="translate(313,600)"/>
<path d="M0 0 C0.33 0 0.66 0 1 0 C1.33 3.3 1.66 6.6 2 10 C1.01 10.66 0.02 11.32 -1 12 C-0.67 8.04 -0.34 4.08 0 0 Z " fill="#3BB7DD" transform="translate(389,516)"/>
<path d="M0 0 C0.99 0.495 0.99 0.495 2 1 C2.73075648 3.3140622 3.40138258 5.64828869 4 8 C3.01 8 2.02 8 1 8 C0.67 5.36 0.34 2.72 0 0 Z " fill="#1CC9ED" transform="translate(735,547)"/>
<path d="M0 0 C0 0.66 0 1.32 0 2 C-6.93 1.505 -6.93 1.505 -14 1 C-14 0.67 -14 0.34 -14 0 C-12.04235617 -0.19456705 -10.08384679 -0.38044247 -8.125 -0.5625 C-6.48917969 -0.71912109 -6.48917969 -0.71912109 -4.8203125 -0.87890625 C-2 -1 -2 -1 0 0 Z " fill="#B0E4E9" transform="translate(725,498)"/>
</svg>
